ffmpeg version 4.4.2-0ubuntu0.22.04.1 Copyright (c) 2000-2021 the FFmpeg developers
  built with gcc 11 (Ubuntu 11.2.0-19ubuntu1)
  configuration: --prefix=/usr --extra-version=0ubuntu0.22.04.1 --toolchain=hardened --libdir=/usr/lib/x86_64-linux-gnu --incdir=/usr/include/x86_64-linux-gnu --arch=amd64 --enable-gpl --disable-stripping --enable-gnutls --enable-ladspa --enable-libaom --enable-libass --enable-libbluray --enable-libbs2b --enable-libcaca --enable-libcdio --enable-libcodec2 --enable-libdav1d --enable-libflite --enable-libfontconfig --enable-libfreetype --enable-libfribidi --enable-libgme --enable-libgsm --enable-libjack --enable-libmp3lame --enable-libmysofa --enable-libopenjpeg --enable-libopenmpt --enable-libopus --enable-libpulse --enable-librabbitmq --enable-librubberband --enable-libshine --enable-libsnappy --enable-libsoxr --enable-libspeex --enable-libsrt --enable-libssh --enable-libtheora --enable-libtwolame --enable-libvidstab --enable-libvorbis --enable-libvpx --enable-libwebp --enable-libx265 --enable-libxml2 --enable-libxvid --enable-libzimg --enable-libzmq --enable-libzvbi --enable-lv2 --enable-omx --enable-openal --enable-opencl --enable-opengl --enable-sdl2 --enable-pocketsphinx --enable-librsvg --enable-libmfx --enable-libdc1394 --enable-libdrm --enable-libiec61883 --enable-chromaprint --enable-frei0r --enable-libx264 --enable-shared
  libavutil      56. 70.100 / 56. 70.100
  libavcodec     58.134.100 / 58.134.100
  libavformat    58. 76.100 / 58. 76.100
  libavdevice    58. 13.100 / 58. 13.100
  libavfilter     7.110.100 /  7.110.100
  libswscale      5.  9.100 /  5.  9.100
  libswresample   3.  9.100 /  3.  9.100
  libpostproc    55.  9.100 / 55.  9.100
[hls @ 0x5648ecff9780] Skip ('#EXT-X-VERSION:3')
[hls @ 0x5648ecff9780] Opening 'https://streams.spacetoon.com/live/stchannel/smil:livesmil.smil/chunklist_w276730450_b346000_slAR.m3u8' for reading
[hls @ 0x5648ecff9780] Skip ('#EXT-X-VERSION:3')
[hls @ 0x5648ecff9780] Skip ('#EXT-X-DISCONTINUITY-SEQUENCE:0')
[https @ 0x5648ed279dc0] Opening 'https://streams.spacetoon.com/live/stchannel/smil:livesmil.smil/chunklist_w276730450_b596000_slAR.m3u8' for reading
[hls @ 0x5648ecff9780] Skip ('#EXT-X-VERSION:3')
[hls @ 0x5648ecff9780] Skip ('#EXT-X-DISCONTINUITY-SEQUENCE:0')
[https @ 0x5648ed279dc0] Opening 'https://streams.spacetoon.com/live/stchannel/smil:livesmil.smil/chunklist_w276730450_b946000_slAR.m3u8' for reading
[hls @ 0x5648ecff9780] Skip ('#EXT-X-VERSION:3')
[hls @ 0x5648ecff9780] Skip ('#EXT-X-DISCONTINUITY-SEQUENCE:0')
[https @ 0x5648ed279dc0] Opening 'https://streams.spacetoon.com/live/stchannel/smil:livesmil.smil/chunklist_w276730450_b1296000_slAR.m3u8' for reading
[hls @ 0x5648ecff9780] Skip ('#EXT-X-VERSION:3')
[hls @ 0x5648ecff9780] Skip ('#EXT-X-DISCONTINUITY-SEQUENCE:0')
[hls @ 0x5648ecff9780] Opening 'https://streams.spacetoon.com/live/stchannel/smil:livesmil.smil/media_w276730450_b346000_slAR_26573.ts' for reading
[hls @ 0x5648ecff9780] Opening 'https://streams.spacetoon.com/live/stchannel/smil:livesmil.smil/media_w276730450_b346000_slAR_26574.ts' for reading
[hls @ 0x5648ecff9780] Opening 'https://streams.spacetoon.com/live/stchannel/smil:livesmil.smil/media_w276730450_b596000_slAR_26573.ts' for reading
[hls @ 0x5648ecff9780] Opening 'https://streams.spacetoon.com/live/stchannel/smil:livesmil.smil/media_w276730450_b596000_slAR_26574.ts' for reading
[hls @ 0x5648ecff9780] Opening 'https://streams.spacetoon.com/live/stchannel/smil:livesmil.smil/media_w276730450_b946000_slAR_26573.ts' for reading
[hls @ 0x5648ecff9780] Opening 'https://streams.spacetoon.com/live/stchannel/smil:livesmil.smil/media_w276730450_b946000_slAR_26574.ts' for reading
[hls @ 0x5648ecff9780] Opening 'https://streams.spacetoon.com/live/stchannel/smil:livesmil.smil/media_w276730450_b1296000_slAR_26573.ts' for reading
[hls @ 0x5648ecff9780] Opening 'https://streams.spacetoon.com/live/stchannel/smil:livesmil.smil/media_w276730450_b1296000_slAR_26574.ts' for reading
Input #0, hls, from 'https://streams.spacetoon.com/live/stchannel/smil:livesmil.smil/playlist.m3u8':
  Duration: N/A, start: 75784.240622, bitrate: N/A
  Program 0 
    Metadata:
      variant_bitrate : 346000
  Stream #0:0: Data: timed_id3 (ID3  / 0x20334449)
    Metadata:
      variant_bitrate : 346000
  Stream #0:1: Video: h264 (High) ([27][0][0][0] / 0x001B), yuv420p, 428x240, 25 fps, 25 tbr, 90k tbn, 50 tbc
    Metadata:
      variant_bitrate : 346000
  Stream #0:2: Audio: aac (LC) ([15][0][0][0] / 0x000F), 48000 Hz, stereo, fltp
    Metadata:
      variant_bitrate : 346000
  Program 1 
    Metadata:
      variant_bitrate : 596000
  Stream #0:3: Data: timed_id3 (ID3  / 0x20334449)
    Metadata:
      variant_bitrate : 596000
  Stream #0:4: Video: h264 (High) ([27][0][0][0] / 0x001B), yuv420p, 640x360, 25 fps, 25 tbr, 90k tbn, 50 tbc
    Metadata:
      variant_bitrate : 596000
  Stream #0:5: Audio: aac (LC) ([15][0][0][0] / 0x000F), 48000 Hz, stereo, fltp
    Metadata:
      variant_bitrate : 596000
  Program 2 
    Metadata:
      variant_bitrate : 946000
  Stream #0:6: Data: timed_id3 (ID3  / 0x20334449)
    Metadata:
      variant_bitrate : 946000
  Stream #0:7: Video: h264 (High) ([27][0][0][0] / 0x001B), yuv420p, 854x480, 25 fps, 25 tbr, 90k tbn, 50 tbc
    Metadata:
      variant_bitrate : 946000
  Stream #0:8: Audio: aac (LC) ([15][0][0][0] / 0x000F), 48000 Hz, stereo, fltp
    Metadata:
      variant_bitrate : 946000
  Program 3 
    Metadata:
      variant_bitrate : 1296000
  Stream #0:9: Data: timed_id3 (ID3  / 0x20334449)
    Metadata:
      variant_bitrate : 1296000
  Stream #0:10: Video: h264 (High) ([27][0][0][0] / 0x001B), yuv420p, 1024x576, 25 fps, 25 tbr, 90k tbn, 50 tbc
    Metadata:
      variant_bitrate : 1296000
  Stream #0:11: Audio: aac (LC) ([15][0][0][0] / 0x000F), 48000 Hz, stereo, fltp
    Metadata:
      variant_bitrate : 1296000
Output #0, hls, to '/var/www/html/live/chs/playlist.m3u8':
  Metadata:
    encoder         : Lavf58.76.100
  Stream #0:0: Video: h264 (High) ([27][0][0][0] / 0x001B), yuv420p, 1024x576, q=2-31, 25 fps, 25 tbr, 90k tbn, 25 tbc
    Metadata:
      variant_bitrate : 1296000
  Stream #0:1: Audio: aac (LC) ([15][0][0][0] / 0x000F), 48000 Hz, stereo, fltp
    Metadata:
      variant_bitrate : 346000
Stream mapping:
  Stream #0:10 -> #0:0 (copy)
  Stream #0:2 -> #0:1 (copy)
Press [q] to stop, [?] for help
frame=    0 fps=0.0 q=-1.0 size=N/A time=00:00:00.00 bitrate=N/A speed=N/A    [https @ 0x5648ed327d80] Opening 'https://streams.spacetoon.com/live/stchannel/smil:livesmil.smil/media_w276730450_b346000_slAR_26575.ts' for reading
[hls @ 0x5648ecff9780] No longer receiving playlist 1 ('https://streams.spacetoon.com/live/stchannel/smil:livesmil.smil/chunklist_w276730450_b596000_slAR.m3u8')
[hls @ 0x5648ecff9780] No longer receiving playlist 2 ('https://streams.spacetoon.com/live/stchannel/smil:livesmil.smil/chunklist_w276730450_b946000_slAR.m3u8')
[https @ 0x5648ee2ab400] Opening 'https://streams.spacetoon.com/live/stchannel/smil:livesmil.smil/media_w276730450_b1296000_slAR_26575.ts' for reading
[https @ 0x5648ed279dc0] Opening 'https://streams.spacetoon.com/live/stchannel/smil:livesmil.smil/chunklist_w276730450_b346000_slAR.m3u8' for reading
[hls @ 0x5648ecff9780] Skip ('#EXT-X-VERSION:3')
[hls @ 0x5648ecff9780] Skip ('#EXT-X-DISCONTINUITY-SEQUENCE:0')
[https @ 0x5648ed327d80] Opening 'https://streams.spacetoon.com/live/stchannel/smil:livesmil.smil/media_w276730450_b346000_slAR_26576.ts' for reading
frame=  719 fps= 83 q=-1.0 size=N/A time=00:00:29.31 bitrate=N/A speed=3.38x    [https @ 0x5648ed279dc0] Opening 'https://streams.spacetoon.com/live/stchannel/smil:livesmil.smil/chunklist_w276730450_b1296000_slAR.m3u8' for reading
[hls @ 0x5648ecff9780] Skip ('#EXT-X-VERSION:3')
[hls @ 0x5648ecff9780] Skip ('#EXT-X-DISCONTINUITY-SEQUENCE:0')
[https @ 0x5648ee2ab400] Opening 'https://streams.spacetoon.com/live/stchannel/smil:livesmil.smil/media_w276730450_b1296000_slAR_26576.ts' for reading
[hls @ 0x5648eec3f680] Opening '/var/www/html/live/chs/playlist0.ts' for writing
[hls @ 0x5648eec3f680] Opening '/var/www/html/live/chs/playlist.m3u8.tmp' for writing
[https @ 0x5648ed279dc0] Opening 'https://streams.spacetoon.com/live/stchannel/smil:livesmil.smil/chunklist_w276730450_b346000_slAR.m3u8' for reading
[hls @ 0x5648ecff9780] Skip ('#EXT-X-VERSION:3')
[hls @ 0x5648ecff9780] Skip ('#EXT-X-DISCONTINUITY-SEQUENCE:0')
[https @ 0x5648ed327d80] Opening 'https://streams.spacetoon.com/live/stchannel/smil:livesmil.smil/media_w276730450_b346000_slAR_26577.ts' for reading
frame=  959 fps= 52 q=-1.0 size=N/A time=00:00:38.66 bitrate=N/A speed=2.11x    [https @ 0x5648ed279dc0] Opening 'https://streams.spacetoon.com/live/stchannel/smil:livesmil.smil/chunklist_w276730450_b1296000_slAR.m3u8' for reading
[hls @ 0x5648ecff9780] Skip ('#EXT-X-VERSION:3')
[hls @ 0x5648ecff9780] Skip ('#EXT-X-DISCONTINUITY-SEQUENCE:0')
[https @ 0x5648ee2ab400] Opening 'https://streams.spacetoon.com/live/stchannel/smil:livesmil.smil/media_w276730450_b1296000_slAR_26577.ts' for reading
[https @ 0x5648ed279dc0] Opening 'https://streams.spacetoon.com/live/stchannel/smil:livesmil.smil/chunklist_w276730450_b346000_slAR.m3u8' for reading
[hls @ 0x5648ecff9780] Skip ('#EXT-X-VERSION:3')
[hls @ 0x5648ecff9780] Skip ('#EXT-X-DISCONTINUITY-SEQUENCE:0')
[https @ 0x5648ed327d80] Opening 'https://streams.spacetoon.com/live/stchannel/smil:livesmil.smil/media_w276730450_b346000_slAR_26578.ts' for reading
[https @ 0x5648ed351100] Opening 'https://streams.spacetoon.com/live/stchannel/smil:livesmil.smil/media_w276730450_b346000_slAR_26579.ts' for reading
frame= 1259 fps= 41 q=-1.0 size=N/A time=00:00:50.88 bitrate=N/A speed=1.67x    [https @ 0x5648ed279dc0] Opening 'https://streams.spacetoon.com/live/stchannel/smil:livesmil.smil/chunklist_w276730450_b1296000_slAR.m3u8' for reading
[hls @ 0x5648ecff9780] Skip ('#EXT-X-VERSION:3')
[hls @ 0x5648ecff9780] Skip ('#EXT-X-DISCONTINUITY-SEQUENCE:0')
[https @ 0x5648ee2ab400] Opening 'https://streams.spacetoon.com/live/stchannel/smil:livesmil.smil/media_w276730450_b1296000_slAR_26578.ts' for reading
[https @ 0x5648ee57e800] Opening 'https://streams.spacetoon.com/live/stchannel/smil:livesmil.smil/media_w276730450_b1296000_slAR_26579.ts' for reading
[hls @ 0x5648eec3f680] Opening '/var/www/html/live/chs/playlist1.ts' for writing
[hls @ 0x5648eec3f680] Opening '/var/www/html/live/chs/playlist.m3u8.tmp' for writing
[https @ 0x5648ed279dc0] Opening 'https://streams.spacetoon.com/live/stchannel/smil:livesmil.smil/chunklist_w276730450_b346000_slAR.m3u8' for reading
[hls @ 0x5648ecff9780] Skip ('#EXT-X-VERSION:3')
[hls @ 0x5648ecff9780] Skip ('#EXT-X-DISCONTINUITY-SEQUENCE:0')
[https @ 0x5648ed351100] Opening 'https://streams.spacetoon.com/live/stchannel/smil:livesmil.smil/media_w276730450_b346000_slAR_26580.ts' for reading
frame= 1739 fps= 43 q=-1.0 size=N/A time=00:01:10.02 bitrate=N/A speed=1.75x    [https @ 0x5648ed279dc0] Opening 'https://streams.spacetoon.com/live/stchannel/smil:livesmil.smil/chunklist_w276730450_b1296000_slAR.m3u8' for reading
[hls @ 0x5648ecff9780] Skip ('#EXT-X-VERSION:3')
[hls @ 0x5648ecff9780] Skip ('#EXT-X-DISCONTINUITY-SEQUENCE:0')
[https @ 0x5648ee57e800] Opening 'https://streams.spacetoon.com/live/stchannel/smil:livesmil.smil/media_w276730450_b1296000_slAR_26580.ts' for reading
[https @ 0x5648ed279dc0] Opening 'https://streams.spacetoon.com/live/stchannel/smil:livesmil.smil/chunklist_w276730450_b346000_slAR.m3u8' for reading
[hls @ 0x5648ecff9780] Skip ('#EXT-X-VERSION:3')
[hls @ 0x5648ecff9780] Skip ('#EXT-X-DISCONTINUITY-SEQUENCE:0')
[https @ 0x5648ed351100] Opening 'https://streams.spacetoon.com/live/stchannel/smil:livesmil.smil/media_w276730450_b346000_slAR_26581.ts' for reading
frame= 1979 fps= 40 q=-1.0 size=N/A time=00:01:19.62 bitrate=N/A speed= 1.6x    [https @ 0x5648ed279dc0] Opening 'https://streams.spacetoon.com/live/stchannel/smil:livesmil.smil/chunklist_w276730450_b1296000_slAR.m3u8' for reading
[hls @ 0x5648ecff9780] Skip ('#EXT-X-VERSION:3')
[hls @ 0x5648ecff9780] Skip ('#EXT-X-DISCONTINUITY-SEQUENCE:0')
[https @ 0x5648ee57e800] Opening 'https://streams.spacetoon.com/live/stchannel/smil:livesmil.smil/media_w276730450_b1296000_slAR_26581.ts' for reading
[https @ 0x5648ed279dc0] Opening 'https://streams.spacetoon.com/live/stchannel/smil:livesmil.smil/chunklist_w276730450_b346000_slAR.m3u8' for reading
[hls @ 0x5648ecff9780] Skip ('#EXT-X-VERSION:3')
[hls @ 0x5648ecff9780] Skip ('#EXT-X-DISCONTINUITY-SEQUENCE:0')
[https @ 0x5648ed351100] Opening 'https://streams.spacetoon.com/live/stchannel/smil:livesmil.smil/media_w276730450_b346000_slAR_26582.ts' for reading
frame= 2219 fps= 37 q=-1.0 size=N/A time=00:01:29.15 bitrate=N/A speed= 1.5x    [https @ 0x5648ed279dc0] Opening 'https://streams.spacetoon.com/live/stchannel/smil:livesmil.smil/chunklist_w276730450_b1296000_slAR.m3u8' for reading
[hls @ 0x5648ecff9780] Skip ('#EXT-X-VERSION:3')
[hls @ 0x5648ecff9780] Skip ('#EXT-X-DISCONTINUITY-SEQUENCE:0')
[https @ 0x5648ee57e800] Opening 'https://streams.spacetoon.com/live/stchannel/smil:livesmil.smil/media_w276730450_b1296000_slAR_26582.ts' for reading
[hls @ 0x5648eec3f680] Opening '/var/www/html/live/chs/playlist2.ts' for writing
[hls @ 0x5648eec3f680] Opening '/var/www/html/live/chs/playlist.m3u8.tmp' for writing
[https @ 0x5648ed279dc0] Opening 'https://streams.spacetoon.com/live/stchannel/smil:livesmil.smil/chunklist_w276730450_b346000_slAR.m3u8' for reading
[hls @ 0x5648ecff9780] Skip ('#EXT-X-VERSION:3')
[hls @ 0x5648ecff9780] Skip ('#EXT-X-DISCONTINUITY-SEQUENCE:0')
[https @ 0x5648ed279dc0] Opening 'https://streams.spacetoon.com/live/stchannel/smil:livesmil.smil/chunklist_w276730450_b346000_slAR.m3u8' for reading
[hls @ 0x5648ecff9780] Skip ('#EXT-X-VERSION:3')
[hls @ 0x5648ecff9780] Skip ('#EXT-X-DISCONTINUITY-SEQUENCE:0')
[https @ 0x5648ed351100] Opening 'https://streams.spacetoon.com/live/stchannel/smil:livesmil.smil/media_w276730450_b346000_slAR_26583.ts' for reading
frame= 2459 fps= 32 q=-1.0 size=N/A time=00:01:38.88 bitrate=N/A speed=1.31x    [https @ 0x5648ed279dc0] Opening 'https://streams.spacetoon.com/live/stchannel/smil:livesmil.smil/chunklist_w276730450_b1296000_slAR.m3u8' for reading
[hls @ 0x5648ecff9780] Skip ('#EXT-X-VERSION:3')
[hls @ 0x5648ecff9780] Skip ('#EXT-X-DISCONTINUITY-SEQUENCE:0')
[https @ 0x5648ee57e800] Opening 'https://streams.spacetoon.com/live/stchannel/smil:livesmil.smil/media_w276730450_b1296000_slAR_26583.ts' for reading
[https @ 0x5648ed279dc0] Opening 'https://streams.spacetoon.com/live/stchannel/smil:livesmil.smil/chunklist_w276730450_b346000_slAR.m3u8' for reading
[hls @ 0x5648ecff9780] Skip ('#EXT-X-VERSION:3')
[hls @ 0x5648ecff9780] Skip ('#EXT-X-DISCONTINUITY-SEQUENCE:0')
[https @ 0x5648ed351100] Opening 'https://streams.spacetoon.com/live/stchannel/smil:livesmil.smil/media_w276730450_b346000_slAR_26584.ts' for reading
frame= 2759 fps= 31 q=-1.0 size=N/A time=00:01:50.91 bitrate=N/A speed=1.26x    [https @ 0x5648ed279dc0] Opening 'https://streams.spacetoon.com/live/stchannel/smil:livesmil.smil/chunklist_w276730450_b1296000_slAR.m3u8' for reading
[hls @ 0x5648ecff9780] Skip ('#EXT-X-VERSION:3')
[hls @ 0x5648ecff9780] Skip ('#EXT-X-DISCONTINUITY-SEQUENCE:0')
[https @ 0x5648ee57e800] Opening 'https://streams.spacetoon.com/live/stchannel/smil:livesmil.smil/media_w276730450_b1296000_slAR_26584.ts' for reading
[https @ 0x5648ed279dc0] Opening 'https://streams.spacetoon.com/live/stchannel/smil:livesmil.smil/chunklist_w276730450_b346000_slAR.m3u8' for reading
[hls @ 0x5648ecff9780] Skip ('#EXT-X-VERSION:3')
[hls @ 0x5648ecff9780] Skip ('#EXT-X-DISCONTINUITY-SEQUENCE:0')
[https @ 0x5648ed351100] Opening 'https://streams.spacetoon.com/live/stchannel/smil:livesmil.smil/media_w276730450_b346000_slAR_26585.ts' for reading
frame= 2999 fps= 31 q=-1.0 size=N/A time=00:02:00.26 bitrate=N/A speed=1.23x    [https @ 0x5648ed279dc0] Opening 'https://streams.spacetoon.com/live/stchannel/smil:livesmil.smil/chunklist_w276730450_b1296000_slAR.m3u8' for reading
[hls @ 0x5648ecff9780] Skip ('#EXT-X-VERSION:3')
[hls @ 0x5648ecff9780] Skip ('#EXT-X-DISCONTINUITY-SEQUENCE:0')
[https @ 0x5648ee57e800] Opening 'https://streams.spacetoon.com/live/stchannel/smil:livesmil.smil/media_w276730450_b1296000_slAR_26585.ts' for reading
[hls @ 0x5648eec3f680] Opening '/var/www/html/live/chs/playlist3.ts' for writing
[hls @ 0x5648eec3f680] Opening '/var/www/html/live/chs/playlist.m3u8.tmp' for writing
[https @ 0x5648ed279dc0] Opening 'https://streams.spacetoon.com/live/stchannel/smil:livesmil.smil/chunklist_w276730450_b346000_slAR.m3u8' for reading
[hls @ 0x5648ecff9780] Skip ('#EXT-X-VERSION:3')
[hls @ 0x5648ecff9780] Skip ('#EXT-X-DISCONTINUITY-SEQUENCE:0')
[https @ 0x5648ed351100] Opening 'https://streams.spacetoon.com/live/stchannel/smil:livesmil.smil/media_w276730450_b346000_slAR_26586.ts' for reading
frame= 3239 fps= 30 q=-1.0 size=N/A time=00:02:09.86 bitrate=N/A speed=1.21x    [https @ 0x5648ed279dc0] Opening 'https://streams.spacetoon.com/live/stchannel/smil:livesmil.smil/chunklist_w276730450_b1296000_slAR.m3u8' for reading
[hls @ 0x5648ecff9780] Skip ('#EXT-X-VERSION:3')
[hls @ 0x5648ecff9780] Skip ('#EXT-X-DISCONTINUITY-SEQUENCE:0')
[https @ 0x5648ee57e800] Opening 'https://streams.spacetoon.com/live/stchannel/smil:livesmil.smil/media_w276730450_b1296000_slAR_26586.ts' for reading
[https @ 0x5648ed279dc0] Opening 'https://streams.spacetoon.com/live/stchannel/smil:livesmil.smil/chunklist_w276730450_b346000_slAR.m3u8' for reading
[hls @ 0x5648ecff9780] Skip ('#EXT-X-VERSION:3')
[hls @ 0x5648ecff9780] Skip ('#EXT-X-DISCONTINUITY-SEQUENCE:0')
[https @ 0x5648ed351100] Opening 'https://streams.spacetoon.com/live/stchannel/smil:livesmil.smil/media_w276730450_b346000_slAR_26587.ts' for reading
frame= 3479 fps= 30 q=-1.0 size=N/A time=00:02:19.65 bitrate=N/A speed=1.19x    [https @ 0x5648ed279dc0] Opening 'https://streams.spacetoon.com/live/stchannel/smil:livesmil.smil/chunklist_w276730450_b1296000_slAR.m3u8' for reading
[hls @ 0x5648ecff9780] Skip ('#EXT-X-VERSION:3')
[hls @ 0x5648ecff9780] Skip ('#EXT-X-DISCONTINUITY-SEQUENCE:0')
[https @ 0x5648ee57e800] Opening 'https://streams.spacetoon.com/live/stchannel/smil:livesmil.smil/media_w276730450_b1296000_slAR_26587.ts' for reading
[https @ 0x5648ed279dc0] Opening 'https://streams.spacetoon.com/live/stchannel/smil:livesmil.smil/chunklist_w276730450_b346000_slAR.m3u8' for reading
[hls @ 0x5648ecff9780] Skip ('#EXT-X-VERSION:3')
[hls @ 0x5648ecff9780] Skip ('#EXT-X-DISCONTINUITY-SEQUENCE:0')
[https @ 0x5648ed351100] Opening 'https://streams.spacetoon.com/live/stchannel/smil:livesmil.smil/media_w276730450_b346000_slAR_26588.ts' for reading
frame= 3719 fps= 29 q=-1.0 size=N/A time=00:02:28.93 bitrate=N/A speed=1.18x    [https @ 0x5648ed279dc0] Opening 'https://streams.spacetoon.com/live/stchannel/smil:livesmil.smil/chunklist_w276730450_b1296000_slAR.m3u8' for reading
[hls @ 0x5648ecff9780] Skip ('#EXT-X-VERSION:3')
[hls @ 0x5648ecff9780] Skip ('#EXT-X-DISCONTINUITY-SEQUENCE:0')
[https @ 0x5648ee57e800] Opening 'https://streams.spacetoon.com/live/stchannel/smil:livesmil.smil/media_w276730450_b1296000_slAR_26588.ts' for reading
[hls @ 0x5648eec3f680] Opening '/var/www/html/live/chs/playlist4.ts' for writing
[hls @ 0x5648eec3f680] Opening '/var/www/html/live/chs/playlist.m3u8.tmp' for writing
[https @ 0x5648ed279dc0] Opening 'https://streams.spacetoon.com/live/stchannel/smil:livesmil.smil/chunklist_w276730450_b346000_slAR.m3u8' for reading
[hls @ 0x5648ecff9780] Skip ('#EXT-X-VERSION:3')
[hls @ 0x5648ecff9780] Skip ('#EXT-X-DISCONTINUITY-SEQUENCE:0')
[https @ 0x5648ed351100] Opening 'https://streams.spacetoon.com/live/stchannel/smil:livesmil.smil/media_w276730450_b346000_slAR_26589.ts' for reading
frame= 3959 fps= 29 q=-1.0 size=N/A time=00:02:38.91 bitrate=N/A speed=1.17x    [https @ 0x5648ed279dc0] Opening 'https://streams.spacetoon.com/live/stchannel/smil:livesmil.smil/chunklist_w276730450_b1296000_slAR.m3u8' for reading
[hls @ 0x5648ecff9780] Skip ('#EXT-X-VERSION:3')
[hls @ 0x5648ecff9780] Skip ('#EXT-X-DISCONTINUITY-SEQUENCE:0')
[https @ 0x5648ee57e800] Opening 'https://streams.spacetoon.com/live/stchannel/smil:livesmil.smil/media_w276730450_b1296000_slAR_26589.ts' for reading
[https @ 0x5648ed279dc0] Opening 'https://streams.spacetoon.com/live/stchannel/smil:livesmil.smil/chunklist_w276730450_b346000_slAR.m3u8' for reading
[hls @ 0x5648ecff9780] Skip ('#EXT-X-VERSION:3')
[hls @ 0x5648ecff9780] Skip ('#EXT-X-DISCONTINUITY-SEQUENCE:0')
[https @ 0x5648ed351100] Opening 'https://streams.spacetoon.com/live/stchannel/smil:livesmil.smil/media_w276730450_b346000_slAR_26590.ts' for reading
frame= 4259 fps= 29 q=-1.0 size=N/A time=00:02:50.88 bitrate=N/A speed=1.15x    [https @ 0x5648ed279dc0] Opening 'https://streams.spacetoon.com/live/stchannel/smil:livesmil.smil/chunklist_w276730450_b1296000_slAR.m3u8' for reading
[hls @ 0x5648ecff9780] Skip ('#EXT-X-VERSION:3')
[hls @ 0x5648ecff9780] Skip ('#EXT-X-DISCONTINUITY-SEQUENCE:0')
[https @ 0x5648ee57e800] Opening 'https://streams.spacetoon.com/live/stchannel/smil:livesmil.smil/media_w276730450_b1296000_slAR_26590.ts' for reading
[https @ 0x5648ed279dc0] Opening 'https://streams.spacetoon.com/live/stchannel/smil:livesmil.smil/chunklist_w276730450_b346000_slAR.m3u8' for reading
[hls @ 0x5648ecff9780] Skip ('#EXT-X-VERSION:3')
[hls @ 0x5648ecff9780] Skip ('#EXT-X-DISCONTINUITY-SEQUENCE:0')
[https @ 0x5648ed351100] Opening 'https://streams.spacetoon.com/live/stchannel/smil:livesmil.smil/media_w276730450_b346000_slAR_26591.ts' for reading
frame= 4499 fps= 28 q=-1.0 size=N/A time=00:03:00.03 bitrate=N/A speed=1.14x    [https @ 0x5648ed279dc0] Opening 'https://streams.spacetoon.com/live/stchannel/smil:livesmil.smil/chunklist_w276730450_b1296000_slAR.m3u8' for reading
[hls @ 0x5648ecff9780] Skip ('#EXT-X-VERSION:3')
[hls @ 0x5648ecff9780] Skip ('#EXT-X-DISCONTINUITY-SEQUENCE:0')
[https @ 0x5648ee57e800] Opening 'https://streams.spacetoon.com/live/stchannel/smil:livesmil.smil/media_w276730450_b1296000_slAR_26591.ts' for reading
[hls @ 0x5648eec3f680] Opening '/var/www/html/live/chs/playlist5.ts' for writing
[hls @ 0x5648eec3f680] Opening '/var/www/html/live/chs/playlist.m3u8.tmp' for writing
[https @ 0x5648ed279dc0] Opening 'https://streams.spacetoon.com/live/stchannel/smil:livesmil.smil/chunklist_w276730450_b346000_slAR.m3u8' for reading
[hls @ 0x5648ecff9780] Skip ('#EXT-X-VERSION:3')
[hls @ 0x5648ecff9780] Skip ('#EXT-X-DISCONTINUITY-SEQUENCE:0')
[https @ 0x5648ed351100] Opening 'https://streams.spacetoon.com/live/stchannel/smil:livesmil.smil/media_w276730450_b346000_slAR_26592.ts' for reading
frame= 4739 fps= 28 q=-1.0 size=N/A time=00:03:09.89 bitrate=N/A speed=1.13x    [https @ 0x5648ed279dc0] Opening 'https://streams.spacetoon.com/live/stchannel/smil:livesmil.smil/chunklist_w276730450_b1296000_slAR.m3u8' for reading
[hls @ 0x5648ecff9780] Skip ('#EXT-X-VERSION:3')
[hls @ 0x5648ecff9780] Skip ('#EXT-X-DISCONTINUITY-SEQUENCE:0')
[https @ 0x5648ee57e800] Opening 'https://streams.spacetoon.com/live/stchannel/smil:livesmil.smil/media_w276730450_b1296000_slAR_26592.ts' for reading
[https @ 0x5648ed279dc0] Opening 'https://streams.spacetoon.com/live/stchannel/smil:livesmil.smil/chunklist_w276730450_b346000_slAR.m3u8' for reading
[hls @ 0x5648ecff9780] Skip ('#EXT-X-VERSION:3')
[hls @ 0x5648ecff9780] Skip ('#EXT-X-DISCONTINUITY-SEQUENCE:0')
[https @ 0x5648ed351100] Opening 'https://streams.spacetoon.com/live/stchannel/smil:livesmil.smil/media_w276730450_b346000_slAR_26593.ts' for reading
frame= 4979 fps= 28 q=-1.0 size=N/A time=00:03:19.55 bitrate=N/A speed=1.12x    [https @ 0x5648ed279dc0] Opening 'https://streams.spacetoon.com/live/stchannel/smil:livesmil.smil/chunklist_w276730450_b1296000_slAR.m3u8' for reading
[hls @ 0x5648ecff9780] Skip ('#EXT-X-VERSION:3')
[hls @ 0x5648ecff9780] Skip ('#EXT-X-DISCONTINUITY-SEQUENCE:0')
[https @ 0x5648ee57e800] Opening 'https://streams.spacetoon.com/live/stchannel/smil:livesmil.smil/media_w276730450_b1296000_slAR_26593.ts' for reading
[https @ 0x5648ed279dc0] Opening 'https://streams.spacetoon.com/live/stchannel/smil:livesmil.smil/chunklist_w276730450_b346000_slAR.m3u8' for reading
[hls @ 0x5648ecff9780] Skip ('#EXT-X-VERSION:3')
[hls @ 0x5648ecff9780] Skip ('#EXT-X-DISCONTINUITY-SEQUENCE:0')
[https @ 0x5648ed351100] Opening 'https://streams.spacetoon.com/live/stchannel/smil:livesmil.smil/media_w276730450_b346000_slAR_26594.ts' for reading
frame= 5219 fps= 28 q=-1.0 size=N/A time=00:03:28.96 bitrate=N/A speed=1.12x    [https @ 0x5648ed279dc0] Opening 'https://streams.spacetoon.com/live/stchannel/smil:livesmil.smil/chunklist_w276730450_b1296000_slAR.m3u8' for reading
[hls @ 0x5648ecff9780] Skip ('#EXT-X-VERSION:3')
[hls @ 0x5648ecff9780] Skip ('#EXT-X-DISCONTINUITY-SEQUENCE:0')
[https @ 0x5648ee57e800] Opening 'https://streams.spacetoon.com/live/stchannel/smil:livesmil.smil/media_w276730450_b1296000_slAR_26594.ts' for reading
[hls @ 0x5648eec3f680] Opening '/var/www/html/live/chs/playlist6.ts' for writing
[hls muxer @ 0x5648eec400c0] failed to delete old segment /var/www/html/live/chs/playlist0.ts: No such file or directory
[hls @ 0x5648eec3f680] Opening '/var/www/html/live/chs/playlist.m3u8.tmp' for writing
[https @ 0x5648ed279dc0] Opening 'https://streams.spacetoon.com/live/stchannel/smil:livesmil.smil/chunklist_w276730450_b346000_slAR.m3u8' for reading
[hls @ 0x5648ecff9780] Skip ('#EXT-X-VERSION:3')
[hls @ 0x5648ecff9780] Skip ('#EXT-X-DISCONTINUITY-SEQUENCE:0')
[https @ 0x5648ed351100] Opening 'https://streams.spacetoon.com/live/stchannel/smil:livesmil.smil/media_w276730450_b346000_slAR_26595.ts' for reading
frame= 5459 fps= 28 q=-1.0 size=N/A time=00:03:38.69 bitrate=N/A speed=1.11x    [https @ 0x5648ed279dc0] Opening 'https://streams.spacetoon.com/live/stchannel/smil:livesmil.smil/chunklist_w276730450_b1296000_slAR.m3u8' for reading
[hls @ 0x5648ecff9780] Skip ('#EXT-X-VERSION:3')
[hls @ 0x5648ecff9780] Skip ('#EXT-X-DISCONTINUITY-SEQUENCE:0')
[https @ 0x5648ee57e800] Opening 'https://streams.spacetoon.com/live/stchannel/smil:livesmil.smil/media_w276730450_b1296000_slAR_26595.ts' for reading
[https @ 0x5648ed279dc0] Opening 'https://streams.spacetoon.com/live/stchannel/smil:livesmil.smil/chunklist_w276730450_b346000_slAR.m3u8' for reading
[hls @ 0x5648ecff9780] Skip ('#EXT-X-VERSION:3')
[hls @ 0x5648ecff9780] Skip ('#EXT-X-DISCONTINUITY-SEQUENCE:0')
[https @ 0x5648ed351100] Opening 'https://streams.spacetoon.com/live/stchannel/smil:livesmil.smil/media_w276730450_b346000_slAR_26596.ts' for reading
frame= 5759 fps= 28 q=-1.0 size=N/A time=00:03:50.46 bitrate=N/A speed= 1.1x    [https @ 0x5648ed279dc0] Opening 'https://streams.spacetoon.com/live/stchannel/smil:livesmil.smil/chunklist_w276730450_b1296000_slAR.m3u8' for reading
[hls @ 0x5648ecff9780] Skip ('#EXT-X-VERSION:3')
[hls @ 0x5648ecff9780] Skip ('#EXT-X-DISCONTINUITY-SEQUENCE:0')
[https @ 0x5648ee57e800] Opening 'https://streams.spacetoon.com/live/stchannel/smil:livesmil.smil/media_w276730450_b1296000_slAR_26596.ts' for reading
[https @ 0x5648ed279dc0] Opening 'https://streams.spacetoon.com/live/stchannel/smil:livesmil.smil/chunklist_w276730450_b346000_slAR.m3u8' for reading
[hls @ 0x5648ecff9780] Skip ('#EXT-X-VERSION:3')
[hls @ 0x5648ecff9780] Skip ('#EXT-X-DISCONTINUITY-SEQUENCE:0')
[https @ 0x5648ed351100] Opening 'https://streams.spacetoon.com/live/stchannel/smil:livesmil.smil/media_w276730450_b346000_slAR_26597.ts' for reading
frame= 5999 fps= 27 q=-1.0 size=N/A time=00:04:00.26 bitrate=N/A speed= 1.1x    [https @ 0x5648ed279dc0] Opening 'https://streams.spacetoon.com/live/stchannel/smil:livesmil.smil/chunklist_w276730450_b1296000_slAR.m3u8' for reading
[hls @ 0x5648ecff9780] Skip ('#EXT-X-VERSION:3')
[hls @ 0x5648ecff9780] Skip ('#EXT-X-DISCONTINUITY-SEQUENCE:0')
[https @ 0x5648ee57e800] Opening 'https://streams.spacetoon.com/live/stchannel/smil:livesmil.smil/media_w276730450_b1296000_slAR_26597.ts' for reading
[hls @ 0x5648eec3f680] Opening '/var/www/html/live/chs/playlist7.ts' for writing
[hls muxer @ 0x5648eec400c0] failed to delete old segment /var/www/html/live/chs/playlist1.ts: No such file or directory
[hls @ 0x5648eec3f680] Opening '/var/www/html/live/chs/playlist.m3u8.tmp' for writing
[https @ 0x5648ed279dc0] Opening 'https://streams.spacetoon.com/live/stchannel/smil:livesmil.smil/chunklist_w276730450_b346000_slAR.m3u8' for reading
[hls @ 0x5648ecff9780] Skip ('#EXT-X-VERSION:3')
[hls @ 0x5648ecff9780] Skip ('#EXT-X-DISCONTINUITY-SEQUENCE:0')
[https @ 0x5648ed351100] Opening 'https://streams.spacetoon.com/live/stchannel/smil:livesmil.smil/media_w276730450_b346000_slAR_26598.ts' for reading
frame= 6239 fps= 27 q=-1.0 size=N/A time=00:04:09.98 bitrate=N/A speed=1.09x    [https @ 0x5648ed279dc0] Opening 'https://streams.spacetoon.com/live/stchannel/smil:livesmil.smil/chunklist_w276730450_b1296000_slAR.m3u8' for reading
[hls @ 0x5648ecff9780] Skip ('#EXT-X-VERSION:3')
[hls @ 0x5648ecff9780] Skip ('#EXT-X-DISCONTINUITY-SEQUENCE:0')
[https @ 0x5648ee57e800] Opening 'https://streams.spacetoon.com/live/stchannel/smil:livesmil.smil/media_w276730450_b1296000_slAR_26598.ts' for reading
[https @ 0x5648ed279dc0] Opening 'https://streams.spacetoon.com/live/stchannel/smil:livesmil.smil/chunklist_w276730450_b346000_slAR.m3u8' for reading
[hls @ 0x5648ecff9780] Skip ('#EXT-X-VERSION:3')
[hls @ 0x5648ecff9780] Skip ('#EXT-X-DISCONTINUITY-SEQUENCE:0')
[https @ 0x5648ed351100] Opening 'https://streams.spacetoon.com/live/stchannel/smil:livesmil.smil/media_w276730450_b346000_slAR_26599.ts' for reading
frame= 6479 fps= 27 q=-1.0 size=N/A time=00:04:19.58 bitrate=N/A speed=1.09x    [https @ 0x5648ed279dc0] Opening 'https://streams.spacetoon.com/live/stchannel/smil:livesmil.smil/chunklist_w276730450_b1296000_slAR.m3u8' for reading
[hls @ 0x5648ecff9780] Skip ('#EXT-X-VERSION:3')
[hls @ 0x5648ecff9780] Skip ('#EXT-X-DISCONTINUITY-SEQUENCE:0')
[https @ 0x5648ee57e800] Opening 'https://streams.spacetoon.com/live/stchannel/smil:livesmil.smil/media_w276730450_b1296000_slAR_26599.ts' for reading
[https @ 0x5648ed279dc0] Opening 'https://streams.spacetoon.com/live/stchannel/smil:livesmil.smil/chunklist_w276730450_b346000_slAR.m3u8' for reading
[hls @ 0x5648ecff9780] Skip ('#EXT-X-VERSION:3')
[hls @ 0x5648ecff9780] Skip ('#EXT-X-DISCONTINUITY-SEQUENCE:0')
[https @ 0x5648ed351100] Opening 'https://streams.spacetoon.com/live/stchannel/smil:livesmil.smil/media_w276730450_b346000_slAR_26600.ts' for reading
frame= 6719 fps= 27 q=-1.0 size=N/A time=00:04:29.18 bitrate=N/A speed=1.09x    [https @ 0x5648ed279dc0] Opening 'https://streams.spacetoon.com/live/stchannel/smil:livesmil.smil/chunklist_w276730450_b1296000_slAR.m3u8' for reading
[hls @ 0x5648ecff9780] Skip ('#EXT-X-VERSION:3')
[hls @ 0x5648ecff9780] Skip ('#EXT-X-DISCONTINUITY-SEQUENCE:0')
[https @ 0x5648ee57e800] Opening 'https://streams.spacetoon.com/live/stchannel/smil:livesmil.smil/media_w276730450_b1296000_slAR_26600.ts' for reading
[hls @ 0x5648eec3f680] Opening '/var/www/html/live/chs/playlist8.ts' for writing
[hls muxer @ 0x5648eec400c0] failed to delete old segment /var/www/html/live/chs/playlist2.ts: No such file or directory
[hls @ 0x5648eec3f680] Opening '/var/www/html/live/chs/playlist.m3u8.tmp' for writing
[https @ 0x5648ed279dc0] Opening 'https://streams.spacetoon.com/live/stchannel/smil:livesmil.smil/chunklist_w276730450_b346000_slAR.m3u8' for reading
[hls @ 0x5648ecff9780] Skip ('#EXT-X-VERSION:3')
[hls @ 0x5648ecff9780] Skip ('#EXT-X-DISCONTINUITY-SEQUENCE:0')
[https @ 0x5648ed351100] Opening 'https://streams.spacetoon.com/live/stchannel/smil:livesmil.smil/media_w276730450_b346000_slAR_26601.ts' for reading
frame= 6959 fps= 27 q=-1.0 size=N/A time=00:04:38.91 bitrate=N/A speed=1.08x    [https @ 0x5648ed279dc0] Opening 'https://streams.spacetoon.com/live/stchannel/smil:livesmil.smil/chunklist_w276730450_b1296000_slAR.m3u8' for reading
[hls @ 0x5648ecff9780] Skip ('#EXT-X-VERSION:3')
[hls @ 0x5648ecff9780] Skip ('#EXT-X-DISCONTINUITY-SEQUENCE:0')
[https @ 0x5648ee57e800] Opening 'https://streams.spacetoon.com/live/stchannel/smil:livesmil.smil/media_w276730450_b1296000_slAR_26601.ts' for reading
[https @ 0x5648ed279dc0] Opening 'https://streams.spacetoon.com/live/stchannel/smil:livesmil.smil/chunklist_w276730450_b346000_slAR.m3u8' for reading
[hls @ 0x5648ecff9780] Skip ('#EXT-X-VERSION:3')
[hls @ 0x5648ecff9780] Skip ('#EXT-X-DISCONTINUITY-SEQUENCE:0')
[https @ 0x5648ed351100] Opening 'https://streams.spacetoon.com/live/stchannel/smil:livesmil.smil/media_w276730450_b346000_slAR_26602.ts' for reading
frame= 7259 fps= 27 q=-1.0 size=N/A time=00:04:50.94 bitrate=N/A speed=1.08x    [https @ 0x5648ed279dc0] Opening 'https://streams.spacetoon.com/live/stchannel/smil:livesmil.smil/chunklist_w276730450_b1296000_slAR.m3u8' for reading
[hls @ 0x5648ecff9780] Skip ('#EXT-X-VERSION:3')
[hls @ 0x5648ecff9780] Skip ('#EXT-X-DISCONTINUITY-SEQUENCE:0')
[https @ 0x5648ee57e800] Opening 'https://streams.spacetoon.com/live/stchannel/smil:livesmil.smil/media_w276730450_b1296000_slAR_26602.ts' for reading
[https @ 0x5648ed279dc0] Opening 'https://streams.spacetoon.com/live/stchannel/smil:livesmil.smil/chunklist_w276730450_b346000_slAR.m3u8' for reading
[hls @ 0x5648ecff9780] Skip ('#EXT-X-VERSION:3')
[hls @ 0x5648ecff9780] Skip ('#EXT-X-DISCONTINUITY-SEQUENCE:0')
[https @ 0x5648ed351100] Opening 'https://streams.spacetoon.com/live/stchannel/smil:livesmil.smil/media_w276730450_b346000_slAR_26603.ts' for reading
frame= 7499 fps= 27 q=-1.0 size=N/A time=00:05:00.42 bitrate=N/A speed=1.08x    [https @ 0x5648ed279dc0] Opening 'https://streams.spacetoon.com/live/stchannel/smil:livesmil.smil/chunklist_w276730450_b1296000_slAR.m3u8' for reading
[hls @ 0x5648ecff9780] Skip ('#EXT-X-VERSION:3')
[hls @ 0x5648ecff9780] Skip ('#EXT-X-DISCONTINUITY-SEQUENCE:0')
[https @ 0x5648ee57e800] Opening 'https://streams.spacetoon.com/live/stchannel/smil:livesmil.smil/media_w276730450_b1296000_slAR_26603.ts' for reading
[hls @ 0x5648eec3f680] Opening '/var/www/html/live/chs/playlist9.ts' for writing
[hls muxer @ 0x5648eec400c0] failed to delete old segment /var/www/html/live/chs/playlist3.ts: No such file or directory
[hls @ 0x5648eec3f680] Opening '/var/www/html/live/chs/playlist.m3u8.tmp' for writing
[https @ 0x5648ed279dc0] Opening 'https://streams.spacetoon.com/live/stchannel/smil:livesmil.smil/chunklist_w276730450_b346000_slAR.m3u8' for reading
[hls @ 0x5648ecff9780] Skip ('#EXT-X-VERSION:3')
[hls @ 0x5648ecff9780] Skip ('#EXT-X-DISCONTINUITY-SEQUENCE:0')
[https @ 0x5648ed351100] Opening 'https://streams.spacetoon.com/live/stchannel/smil:livesmil.smil/media_w276730450_b346000_slAR_26604.ts' for reading
frame= 7739 fps= 27 q=-1.0 size=N/A time=00:05:10.14 bitrate=N/A speed=1.07x    [https @ 0x5648ed279dc0] Opening 'https://streams.spacetoon.com/live/stchannel/smil:livesmil.smil/chunklist_w276730450_b1296000_slAR.m3u8' for reading
[hls @ 0x5648ecff9780] Skip ('#EXT-X-VERSION:3')
[hls @ 0x5648ecff9780] Skip ('#EXT-X-DISCONTINUITY-SEQUENCE:0')
[https @ 0x5648ee57e800] Opening 'https://streams.spacetoon.com/live/stchannel/smil:livesmil.smil/media_w276730450_b1296000_slAR_26604.ts' for reading
[https @ 0x5648ed279dc0] Opening 'https://streams.spacetoon.com/live/stchannel/smil:livesmil.smil/chunklist_w276730450_b346000_slAR.m3u8' for reading
[hls @ 0x5648ecff9780] Skip ('#EXT-X-VERSION:3')
[hls @ 0x5648ecff9780] Skip ('#EXT-X-DISCONTINUITY-SEQUENCE:0')
[https @ 0x5648ed351100] Opening 'https://streams.spacetoon.com/live/stchannel/smil:livesmil.smil/media_w276730450_b346000_slAR_26605.ts' for reading
frame= 7979 fps= 27 q=-1.0 size=N/A time=00:05:19.68 bitrate=N/A speed=1.07x    [https @ 0x5648ed279dc0] Opening 'https://streams.spacetoon.com/live/stchannel/smil:livesmil.smil/chunklist_w276730450_b1296000_slAR.m3u8' for reading
[hls @ 0x5648ecff9780] Skip ('#EXT-X-VERSION:3')
[hls @ 0x5648ecff9780] Skip ('#EXT-X-DISCONTINUITY-SEQUENCE:0')
[https @ 0x5648ee57e800] Opening 'https://streams.spacetoon.com/live/stchannel/smil:livesmil.smil/media_w276730450_b1296000_slAR_26605.ts' for reading
[https @ 0x5648ed279dc0] Opening 'https://streams.spacetoon.com/live/stchannel/smil:livesmil.smil/chunklist_w276730450_b346000_slAR.m3u8' for reading
[hls @ 0x5648ecff9780] Skip ('#EXT-X-VERSION:3')
[hls @ 0x5648ecff9780] Skip ('#EXT-X-DISCONTINUITY-SEQUENCE:0')
[https @ 0x5648ed351100] Opening 'https://streams.spacetoon.com/live/stchannel/smil:livesmil.smil/media_w276730450_b346000_slAR_26606.ts' for reading
frame= 8219 fps= 27 q=-1.0 size=N/A time=00:05:29.09 bitrate=N/A speed=1.07x    [https @ 0x5648ed279dc0] Opening 'https://streams.spacetoon.com/live/stchannel/smil:livesmil.smil/chunklist_w276730450_b1296000_slAR.m3u8' for reading
[hls @ 0x5648ecff9780] Skip ('#EXT-X-VERSION:3')
[hls @ 0x5648ecff9780] Skip ('#EXT-X-DISCONTINUITY-SEQUENCE:0')
[https @ 0x5648ee57e800] Opening 'https://streams.spacetoon.com/live/stchannel/smil:livesmil.smil/media_w276730450_b1296000_slAR_26606.ts' for reading
[hls @ 0x5648eec3f680] Opening '/var/www/html/live/chs/playlist10.ts' for writing
[hls muxer @ 0x5648eec400c0] failed to delete old segment /var/www/html/live/chs/playlist4.ts: No such file or directory
[hls @ 0x5648eec3f680] Opening '/var/www/html/live/chs/playlist.m3u8.tmp' for writing
[https @ 0x5648ed279dc0] Opening 'https://streams.spacetoon.com/live/stchannel/smil:livesmil.smil/chunklist_w276730450_b346000_slAR.m3u8' for reading
[hls @ 0x5648ecff9780] Skip ('#EXT-X-VERSION:3')
[hls @ 0x5648ecff9780] Skip ('#EXT-X-DISCONTINUITY-SEQUENCE:0')
[https @ 0x5648ed351100] Opening 'https://streams.spacetoon.com/live/stchannel/smil:livesmil.smil/media_w276730450_b346000_slAR_26607.ts' for reading
frame= 8459 fps= 27 q=-1.0 size=N/A time=00:05:38.82 bitrate=N/A speed=1.07x    [https @ 0x5648ed279dc0] Opening 'https://streams.spacetoon.com/live/stchannel/smil:livesmil.smil/chunklist_w276730450_b1296000_slAR.m3u8' for reading
[hls @ 0x5648ecff9780] Skip ('#EXT-X-VERSION:3')
[hls @ 0x5648ecff9780] Skip ('#EXT-X-DISCONTINUITY-SEQUENCE:0')
[https @ 0x5648ee57e800] Opening 'https://streams.spacetoon.com/live/stchannel/smil:livesmil.smil/media_w276730450_b1296000_slAR_26607.ts' for reading
[https @ 0x5648ed279dc0] Opening 'https://streams.spacetoon.com/live/stchannel/smil:livesmil.smil/chunklist_w276730450_b346000_slAR.m3u8' for reading
[hls @ 0x5648ecff9780] Skip ('#EXT-X-VERSION:3')
[hls @ 0x5648ecff9780] Skip ('#EXT-X-DISCONTINUITY-SEQUENCE:0')
[https @ 0x5648ed351100] Opening 'https://streams.spacetoon.com/live/stchannel/smil:livesmil.smil/media_w276730450_b346000_slAR_26608.ts' for reading
frame= 8759 fps= 27 q=-1.0 size=N/A time=00:05:50.59 bitrate=N/A speed=1.06x    [https @ 0x5648ed279dc0] Opening 'https://streams.spacetoon.com/live/stchannel/smil:livesmil.smil/chunklist_w276730450_b1296000_slAR.m3u8' for reading
[hls @ 0x5648ecff9780] Skip ('#EXT-X-VERSION:3')
[hls @ 0x5648ecff9780] Skip ('#EXT-X-DISCONTINUITY-SEQUENCE:0')
[https @ 0x5648ee57e800] Opening 'https://streams.spacetoon.com/live/stchannel/smil:livesmil.smil/media_w276730450_b1296000_slAR_26608.ts' for reading
[https @ 0x5648ed279dc0] Opening 'https://streams.spacetoon.com/live/stchannel/smil:livesmil.smil/chunklist_w276730450_b346000_slAR.m3u8' for reading
[hls @ 0x5648ecff9780] Skip ('#EXT-X-VERSION:3')
[hls @ 0x5648ecff9780] Skip ('#EXT-X-DISCONTINUITY-SEQUENCE:0')
[https @ 0x5648ed351100] Opening 'https://streams.spacetoon.com/live/stchannel/smil:livesmil.smil/media_w276730450_b346000_slAR_26609.ts' for reading
[https @ 0x5648ed327d80] Opening 'https://streams.spacetoon.com/live/stchannel/smil:livesmil.smil/media_w276730450_b346000_slAR_26610.ts' for reading
frame= 8999 fps= 26 q=-1.0 size=N/A time=00:06:00.38 bitrate=N/A speed=1.06x    [https @ 0x5648ed279dc0] Opening 'https://streams.spacetoon.com/live/stchannel/smil:livesmil.smil/chunklist_w276730450_b1296000_slAR.m3u8' for reading
[hls @ 0x5648ecff9780] Skip ('#EXT-X-VERSION:3')
[hls @ 0x5648ecff9780] Skip ('#EXT-X-DISCONTINUITY-SEQUENCE:0')
[https @ 0x5648ee57e800] Opening 'https://streams.spacetoon.com/live/stchannel/smil:livesmil.smil/media_w276730450_b1296000_slAR_26609.ts' for reading
[https @ 0x5648ee2ab400] Opening 'https://streams.spacetoon.com/live/stchannel/smil:livesmil.smil/media_w276730450_b1296000_slAR_26610.ts' for reading
[hls @ 0x5648eec3f680] Opening '/var/www/html/live/chs/playlist11.ts' for writing
[hls muxer @ 0x5648eec400c0] failed to delete old segment /var/www/html/live/chs/playlist5.ts: No such file or directory
[hls @ 0x5648eec3f680] Opening '/var/www/html/live/chs/playlist.m3u8.tmp' for writing
[https @ 0x5648ed279dc0] Opening 'https://streams.spacetoon.com/live/stchannel/smil:livesmil.smil/chunklist_w276730450_b346000_slAR.m3u8' for reading
[hls @ 0x5648ecff9780] Skip ('#EXT-X-VERSION:3')
[hls @ 0x5648ecff9780] Skip ('#EXT-X-DISCONTINUITY-SEQUENCE:0')
[https @ 0x5648ed327d80] Opening 'https://streams.spacetoon.com/live/stchannel/smil:livesmil.smil/media_w276730450_b346000_slAR_26611.ts' for reading
frame= 9479 fps= 27 q=-1.0 size=N/A time=00:06:19.58 bitrate=N/A speed=1.09x    [https @ 0x5648ed279dc0] Opening 'https://streams.spacetoon.com/live/stchannel/smil:livesmil.smil/chunklist_w276730450_b1296000_slAR.m3u8' for reading
[hls @ 0x5648ecff9780] Skip ('#EXT-X-VERSION:3')
[hls @ 0x5648ecff9780] Skip ('#EXT-X-DISCONTINUITY-SEQUENCE:0')
[https @ 0x5648ee2ab400] Opening 'https://streams.spacetoon.com/live/stchannel/smil:livesmil.smil/media_w276730450_b1296000_slAR_26611.ts' for reading
[https @ 0x5648ed279dc0] Opening 'https://streams.spacetoon.com/live/stchannel/smil:livesmil.smil/chunklist_w276730450_b346000_slAR.m3u8' for reading
[hls @ 0x5648ecff9780] Skip ('#EXT-X-VERSION:3')
[hls @ 0x5648ecff9780] Skip ('#EXT-X-DISCONTINUITY-SEQUENCE:0')
[https @ 0x5648ed327d80] Opening 'https://streams.spacetoon.com/live/stchannel/smil:livesmil.smil/media_w276730450_b346000_slAR_26612.ts' for reading
frame= 9719 fps= 27 q=-1.0 size=N/A time=00:06:28.99 bitrate=N/A speed=1.08x    [https @ 0x5648ed279dc0] Opening 'https://streams.spacetoon.com/live/stchannel/smil:livesmil.smil/chunklist_w276730450_b1296000_slAR.m3u8' for reading
[hls @ 0x5648ecff9780] Skip ('#EXT-X-VERSION:3')
[hls @ 0x5648ecff9780] Skip ('#EXT-X-DISCONTINUITY-SEQUENCE:0')
[https @ 0x5648ee2ab400] Opening 'https://streams.spacetoon.com/live/stchannel/smil:livesmil.smil/media_w276730450_b1296000_slAR_26612.ts' for reading
[hls @ 0x5648eec3f680] Opening '/var/www/html/live/chs/playlist12.ts' for writing
[hls @ 0x5648eec3f680] Opening '/var/www/html/live/chs/playlist.m3u8.tmp' for writing
[https @ 0x5648ed279dc0] Opening 'https://streams.spacetoon.com/live/stchannel/smil:livesmil.smil/chunklist_w276730450_b346000_slAR.m3u8' for reading
[hls @ 0x5648ecff9780] Skip ('#EXT-X-VERSION:3')
[hls @ 0x5648ecff9780] Skip ('#EXT-X-DISCONTINUITY-SEQUENCE:0')
[https @ 0x5648ed279dc0] Opening 'https://streams.spacetoon.com/live/stchannel/smil:livesmil.smil/chunklist_w276730450_b346000_slAR.m3u8' for reading
[hls @ 0x5648ecff9780] Skip ('#EXT-X-VERSION:3')
[hls @ 0x5648ecff9780] Skip ('#EXT-X-DISCONTINUITY-SEQUENCE:0')
[https @ 0x5648ed327d80] Opening 'https://streams.spacetoon.com/live/stchannel/smil:livesmil.smil/media_w276730450_b346000_slAR_26613.ts' for reading
frame= 9959 fps= 27 q=-1.0 size=N/A time=00:06:38.78 bitrate=N/A speed=1.06x    [https @ 0x5648ed279dc0] Opening 'https://streams.spacetoon.com/live/stchannel/smil:livesmil.smil/chunklist_w276730450_b1296000_slAR.m3u8' for reading
[hls @ 0x5648ecff9780] Skip ('#EXT-X-VERSION:3')
[hls @ 0x5648ecff9780] Skip ('#EXT-X-DISCONTINUITY-SEQUENCE:0')
[https @ 0x5648ee2ab400] Opening 'https://streams.spacetoon.com/live/stchannel/smil:livesmil.smil/media_w276730450_b1296000_slAR_26613.ts' for reading
[https @ 0x5648ed279dc0] Opening 'https://streams.spacetoon.com/live/stchannel/smil:livesmil.smil/chunklist_w276730450_b346000_slAR.m3u8' for reading
[hls @ 0x5648ecff9780] Skip ('#EXT-X-VERSION:3')
[hls @ 0x5648ecff9780] Skip ('#EXT-X-DISCONTINUITY-SEQUENCE:0')
[https @ 0x5648ed327d80] Opening 'https://streams.spacetoon.com/live/stchannel/smil:livesmil.smil/media_w276730450_b346000_slAR_26614.ts' for reading
frame=10259 fps= 26 q=-1.0 size=N/A time=00:06:50.69 bitrate=N/A speed=1.06x    [https @ 0x5648ed279dc0] Opening 'https://streams.spacetoon.com/live/stchannel/smil:livesmil.smil/chunklist_w276730450_b1296000_slAR.m3u8' for reading
[hls @ 0x5648ecff9780] Skip ('#EXT-X-VERSION:3')
[hls @ 0x5648ecff9780] Skip ('#EXT-X-DISCONTINUITY-SEQUENCE:0')
[https @ 0x5648ee2ab400] Opening 'https://streams.spacetoon.com/live/stchannel/smil:livesmil.smil/media_w276730450_b1296000_slAR_26614.ts' for reading
[https @ 0x5648ed279dc0] Opening 'https://streams.spacetoon.com/live/stchannel/smil:livesmil.smil/chunklist_w276730450_b346000_slAR.m3u8' for reading
[hls @ 0x5648ecff9780] Skip ('#EXT-X-VERSION:3')
[hls @ 0x5648ecff9780] Skip ('#EXT-X-DISCONTINUITY-SEQUENCE:0')
[https @ 0x5648ed327d80] Opening 'https://streams.spacetoon.com/live/stchannel/smil:livesmil.smil/media_w276730450_b346000_slAR_26615.ts' for reading
frame=10499 fps= 26 q=-1.0 size=N/A time=00:07:00.16 bitrate=N/A speed=1.06x    [https @ 0x5648ed279dc0] Opening 'https://streams.spacetoon.com/live/stchannel/smil:livesmil.smil/chunklist_w276730450_b1296000_slAR.m3u8' for reading
[hls @ 0x5648ecff9780] Skip ('#EXT-X-VERSION:3')
[hls @ 0x5648ecff9780] Skip ('#EXT-X-DISCONTINUITY-SEQUENCE:0')
[https @ 0x5648ee2ab400] Opening 'https://streams.spacetoon.com/live/stchannel/smil:livesmil.smil/media_w276730450_b1296000_slAR_26615.ts' for reading
[hls @ 0x5648eec3f680] Opening '/var/www/html/live/chs/playlist13.ts' for writing
[hls muxer @ 0x5648eec400c0] failed to delete old segment /var/www/html/live/chs/playlist7.ts: No such file or directory
[hls @ 0x5648eec3f680] Opening '/var/www/html/live/chs/playlist.m3u8.tmp' for writing
[https @ 0x5648ed279dc0] Opening 'https://streams.spacetoon.com/live/stchannel/smil:livesmil.smil/chunklist_w276730450_b346000_slAR.m3u8' for reading
[hls @ 0x5648ecff9780] Skip ('#EXT-X-VERSION:3')
[hls @ 0x5648ecff9780] Skip ('#EXT-X-DISCONTINUITY-SEQUENCE:0')
[https @ 0x5648ed327d80] Opening 'https://streams.spacetoon.com/live/stchannel/smil:livesmil.smil/media_w276730450_b346000_slAR_26616.ts' for reading
frame=10739 fps= 26 q=-1.0 size=N/A time=00:07:09.70 bitrate=N/A speed=1.06x    [https @ 0x5648ed279dc0] Opening 'https://streams.spacetoon.com/live/stchannel/smil:livesmil.smil/chunklist_w276730450_b1296000_slAR.m3u8' for reading
[hls @ 0x5648ecff9780] Skip ('#EXT-X-VERSION:3')
[hls @ 0x5648ecff9780] Skip ('#EXT-X-DISCONTINUITY-SEQUENCE:0')
[https @ 0x5648ee2ab400] Opening 'https://streams.spacetoon.com/live/stchannel/smil:livesmil.smil/media_w276730450_b1296000_slAR_26616.ts' for reading
[https @ 0x5648ed279dc0] Opening 'https://streams.spacetoon.com/live/stchannel/smil:livesmil.smil/chunklist_w276730450_b346000_slAR.m3u8' for reading
[hls @ 0x5648ecff9780] Skip ('#EXT-X-VERSION:3')
[hls @ 0x5648ecff9780] Skip ('#EXT-X-DISCONTINUITY-SEQUENCE:0')
[https @ 0x5648ed327d80] Opening 'https://streams.spacetoon.com/live/stchannel/smil:livesmil.smil/media_w276730450_b346000_slAR_26617.ts' for reading
frame=10979 fps= 26 q=-1.0 size=N/A time=00:07:19.81 bitrate=N/A speed=1.06x    [https @ 0x5648ed279dc0] Opening 'https://streams.spacetoon.com/live/stchannel/smil:livesmil.smil/chunklist_w276730450_b1296000_slAR.m3u8' for reading
[hls @ 0x5648ecff9780] Skip ('#EXT-X-VERSION:3')
[hls @ 0x5648ecff9780] Skip ('#EXT-X-DISCONTINUITY-SEQUENCE:0')
[https @ 0x5648ee2ab400] Opening 'https://streams.spacetoon.com/live/stchannel/smil:livesmil.smil/media_w276730450_b1296000_slAR_26617.ts' for reading
[https @ 0x5648ed279dc0] Opening 'https://streams.spacetoon.com/live/stchannel/smil:livesmil.smil/chunklist_w276730450_b346000_slAR.m3u8' for reading
[hls @ 0x5648ecff9780] Skip ('#EXT-X-VERSION:3')
[hls @ 0x5648ecff9780] Skip ('#EXT-X-DISCONTINUITY-SEQUENCE:0')
[https @ 0x5648ed327d80] Opening 'https://streams.spacetoon.com/live/stchannel/smil:livesmil.smil/media_w276730450_b346000_slAR_26618.ts' for reading
frame=11219 fps= 26 q=-1.0 size=N/A time=00:07:29.47 bitrate=N/A speed=1.05x    [https @ 0x5648ed279dc0] Opening 'https://streams.spacetoon.com/live/stchannel/smil:livesmil.smil/chunklist_w276730450_b1296000_slAR.m3u8' for reading
[hls @ 0x5648ecff9780] Skip ('#EXT-X-VERSION:3')
[hls @ 0x5648ecff9780] Skip ('#EXT-X-DISCONTINUITY-SEQUENCE:0')
[https @ 0x5648ee2ab400] Opening 'https://streams.spacetoon.com/live/stchannel/smil:livesmil.smil/media_w276730450_b1296000_slAR_26618.ts' for reading
[hls @ 0x5648eec3f680] Opening '/var/www/html/live/chs/playlist14.ts' for writing
[hls muxer @ 0x5648eec400c0] failed to delete old segment /var/www/html/live/chs/playlist8.ts: No such file or directory
[hls @ 0x5648eec3f680] Opening '/var/www/html/live/chs/playlist.m3u8.tmp' for writing
[https @ 0x5648ed279dc0] Opening 'https://streams.spacetoon.com/live/stchannel/smil:livesmil.smil/chunklist_w276730450_b346000_slAR.m3u8' for reading
[hls @ 0x5648ecff9780] Skip ('#EXT-X-VERSION:3')
[hls @ 0x5648ecff9780] Skip ('#EXT-X-DISCONTINUITY-SEQUENCE:0')
[https @ 0x5648ed327d80] Opening 'https://streams.spacetoon.com/live/stchannel/smil:livesmil.smil/media_w276730450_b346000_slAR_26619.ts' for reading
frame=11459 fps= 26 q=-1.0 size=N/A time=00:07:38.50 bitrate=N/A speed=1.05x    [https @ 0x5648ed279dc0] Opening 'https://streams.spacetoon.com/live/stchannel/smil:livesmil.smil/chunklist_w276730450_b1296000_slAR.m3u8' for reading
[hls @ 0x5648ecff9780] Skip ('#EXT-X-VERSION:3')
[hls @ 0x5648ecff9780] Skip ('#EXT-X-DISCONTINUITY-SEQUENCE:0')
[https @ 0x5648ee2ab400] Opening 'https://streams.spacetoon.com/live/stchannel/smil:livesmil.smil/media_w276730450_b1296000_slAR_26619.ts' for reading
[https @ 0x5648ed279dc0] Opening 'https://streams.spacetoon.com/live/stchannel/smil:livesmil.smil/chunklist_w276730450_b346000_slAR.m3u8' for reading
[hls @ 0x5648ecff9780] Skip ('#EXT-X-VERSION:3')
[hls @ 0x5648ecff9780] Skip ('#EXT-X-DISCONTINUITY-SEQUENCE:0')
[https @ 0x5648ed327d80] Opening 'https://streams.spacetoon.com/live/stchannel/smil:livesmil.smil/media_w276730450_b346000_slAR_26620.ts' for reading
frame=11759 fps= 26 q=-1.0 size=N/A time=00:07:51.04 bitrate=N/A speed=1.05x    [https @ 0x5648ed279dc0] Opening 'https://streams.spacetoon.com/live/stchannel/smil:livesmil.smil/chunklist_w276730450_b1296000_slAR.m3u8' for reading
[hls @ 0x5648ecff9780] Skip ('#EXT-X-VERSION:3')
[hls @ 0x5648ecff9780] Skip ('#EXT-X-DISCONTINUITY-SEQUENCE:0')
[https @ 0x5648ee2ab400] Opening 'https://streams.spacetoon.com/live/stchannel/smil:livesmil.smil/media_w276730450_b1296000_slAR_26620.ts' for reading
[https @ 0x5648ed279dc0] Opening 'https://streams.spacetoon.com/live/stchannel/smil:livesmil.smil/chunklist_w276730450_b346000_slAR.m3u8' for reading
[hls @ 0x5648ecff9780] Skip ('#EXT-X-VERSION:3')
[hls @ 0x5648ecff9780] Skip ('#EXT-X-DISCONTINUITY-SEQUENCE:0')
[https @ 0x5648ed327d80] Opening 'https://streams.spacetoon.com/live/stchannel/smil:livesmil.smil/media_w276730450_b346000_slAR_26621.ts' for reading
frame=11999 fps= 26 q=-1.0 size=N/A time=00:08:00.19 bitrate=N/A speed=1.05x    [https @ 0x5648ed279dc0] Opening 'https://streams.spacetoon.com/live/stchannel/smil:livesmil.smil/chunklist_w276730450_b1296000_slAR.m3u8' for reading
[hls @ 0x5648ecff9780] Skip ('#EXT-X-VERSION:3')
[hls @ 0x5648ecff9780] Skip ('#EXT-X-DISCONTINUITY-SEQUENCE:0')
[https @ 0x5648ee2ab400] Opening 'https://streams.spacetoon.com/live/stchannel/smil:livesmil.smil/media_w276730450_b1296000_slAR_26621.ts' for reading
[hls @ 0x5648eec3f680] Opening '/var/www/html/live/chs/playlist15.ts' for writing
[hls muxer @ 0x5648eec400c0] failed to delete old segment /var/www/html/live/chs/playlist9.ts: No such file or directory
[hls @ 0x5648eec3f680] Opening '/var/www/html/live/chs/playlist.m3u8.tmp' for writing
[https @ 0x5648ed279dc0] Opening 'https://streams.spacetoon.com/live/stchannel/smil:livesmil.smil/chunklist_w276730450_b346000_slAR.m3u8' for reading
[hls @ 0x5648ecff9780] Skip ('#EXT-X-VERSION:3')
[hls @ 0x5648ecff9780] Skip ('#EXT-X-DISCONTINUITY-SEQUENCE:0')
[https @ 0x5648ed327d80] Opening 'https://streams.spacetoon.com/live/stchannel/smil:livesmil.smil/media_w276730450_b346000_slAR_26622.ts' for reading
frame=12239 fps= 26 q=-1.0 size=N/A time=00:08:09.86 bitrate=N/A speed=1.05x    [https @ 0x5648ed279dc0] Opening 'https://streams.spacetoon.com/live/stchannel/smil:livesmil.smil/chunklist_w276730450_b1296000_slAR.m3u8' for reading
[hls @ 0x5648ecff9780] Skip ('#EXT-X-VERSION:3')
[hls @ 0x5648ecff9780] Skip ('#EXT-X-DISCONTINUITY-SEQUENCE:0')
[https @ 0x5648ee2ab400] Opening 'https://streams.spacetoon.com/live/stchannel/smil:livesmil.smil/media_w276730450_b1296000_slAR_26622.ts' for reading
[https @ 0x5648ed279dc0] Opening 'https://streams.spacetoon.com/live/stchannel/smil:livesmil.smil/chunklist_w276730450_b346000_slAR.m3u8' for reading
[hls @ 0x5648ecff9780] Skip ('#EXT-X-VERSION:3')
[hls @ 0x5648ecff9780] Skip ('#EXT-X-DISCONTINUITY-SEQUENCE:0')
[https @ 0x5648ed327d80] Opening 'https://streams.spacetoon.com/live/stchannel/smil:livesmil.smil/media_w276730450_b346000_slAR_26623.ts' for reading
frame=12479 fps= 26 q=-1.0 size=N/A time=00:08:19.71 bitrate=N/A speed=1.05x    [https @ 0x5648ed279dc0] Opening 'https://streams.spacetoon.com/live/stchannel/smil:livesmil.smil/chunklist_w276730450_b1296000_slAR.m3u8' for reading
[hls @ 0x5648ecff9780] Skip ('#EXT-X-VERSION:3')
[hls @ 0x5648ecff9780] Skip ('#EXT-X-DISCONTINUITY-SEQUENCE:0')
[https @ 0x5648ee2ab400] Opening 'https://streams.spacetoon.com/live/stchannel/smil:livesmil.smil/media_w276730450_b1296000_slAR_26623.ts' for reading
[https @ 0x5648ed279dc0] Opening 'https://streams.spacetoon.com/live/stchannel/smil:livesmil.smil/chunklist_w276730450_b346000_slAR.m3u8' for reading
[hls @ 0x5648ecff9780] Skip ('#EXT-X-VERSION:3')
[hls @ 0x5648ecff9780] Skip ('#EXT-X-DISCONTINUITY-SEQUENCE:0')
[https @ 0x5648ed327d80] Opening 'https://streams.spacetoon.com/live/stchannel/smil:livesmil.smil/media_w276730450_b346000_slAR_26624.ts' for reading
frame=12719 fps= 26 q=-1.0 size=N/A time=00:08:29.18 bitrate=N/A speed=1.05x    [https @ 0x5648ed279dc0] Opening 'https://streams.spacetoon.com/live/stchannel/smil:livesmil.smil/chunklist_w276730450_b1296000_slAR.m3u8' for reading
[hls @ 0x5648ecff9780] Skip ('#EXT-X-VERSION:3')
[hls @ 0x5648ecff9780] Skip ('#EXT-X-DISCONTINUITY-SEQUENCE:0')
[https @ 0x5648ee2ab400] Opening 'https://streams.spacetoon.com/live/stchannel/smil:livesmil.smil/media_w276730450_b1296000_slAR_26624.ts' for reading
[hls @ 0x5648eec3f680] Opening '/var/www/html/live/chs/playlist16.ts' for writing
[hls muxer @ 0x5648eec400c0] failed to delete old segment /var/www/html/live/chs/playlist10.ts: No such file or directory
[hls @ 0x5648eec3f680] Opening '/var/www/html/live/chs/playlist.m3u8.tmp' for writing
[https @ 0x5648ed279dc0] Opening 'https://streams.spacetoon.com/live/stchannel/smil:livesmil.smil/chunklist_w276730450_b346000_slAR.m3u8' for reading
[hls @ 0x5648ecff9780] Skip ('#EXT-X-VERSION:3')
[hls @ 0x5648ecff9780] Skip ('#EXT-X-DISCONTINUITY-SEQUENCE:0')
[https @ 0x5648ed327d80] Opening 'https://streams.spacetoon.com/live/stchannel/smil:livesmil.smil/media_w276730450_b346000_slAR_26625.ts' for reading
frame=12959 fps= 26 q=-1.0 size=N/A time=00:08:38.91 bitrate=N/A speed=1.05x    [https @ 0x5648ed279dc0] Opening 'https://streams.spacetoon.com/live/stchannel/smil:livesmil.smil/chunklist_w276730450_b1296000_slAR.m3u8' for reading
[hls @ 0x5648ecff9780] Skip ('#EXT-X-VERSION:3')
[hls @ 0x5648ecff9780] Skip ('#EXT-X-DISCONTINUITY-SEQUENCE:0')
[https @ 0x5648ee2ab400] Opening 'https://streams.spacetoon.com/live/stchannel/smil:livesmil.smil/media_w276730450_b1296000_slAR_26625.ts' for reading
[https @ 0x5648ed279dc0] Opening 'https://streams.spacetoon.com/live/stchannel/smil:livesmil.smil/chunklist_w276730450_b346000_slAR.m3u8' for reading
[hls @ 0x5648ecff9780] Skip ('#EXT-X-VERSION:3')
[hls @ 0x5648ecff9780] Skip ('#EXT-X-DISCONTINUITY-SEQUENCE:0')
[https @ 0x5648ed327d80] Opening 'https://streams.spacetoon.com/live/stchannel/smil:livesmil.smil/media_w276730450_b346000_slAR_26626.ts' for reading
frame=13259 fps= 26 q=-1.0 size=N/A time=00:08:50.88 bitrate=N/A speed=1.04x    [https @ 0x5648ed279dc0] Opening 'https://streams.spacetoon.com/live/stchannel/smil:livesmil.smil/chunklist_w276730450_b1296000_slAR.m3u8' for reading
[hls @ 0x5648ecff9780] Skip ('#EXT-X-VERSION:3')
[hls @ 0x5648ecff9780] Skip ('#EXT-X-DISCONTINUITY-SEQUENCE:0')
[https @ 0x5648ee2ab400] Opening 'https://streams.spacetoon.com/live/stchannel/smil:livesmil.smil/media_w276730450_b1296000_slAR_26626.ts' for reading
[https @ 0x5648ed279dc0] Opening 'https://streams.spacetoon.com/live/stchannel/smil:livesmil.smil/chunklist_w276730450_b346000_slAR.m3u8' for reading
[hls @ 0x5648ecff9780] Skip ('#EXT-X-VERSION:3')
[hls @ 0x5648ecff9780] Skip ('#EXT-X-DISCONTINUITY-SEQUENCE:0')
[https @ 0x5648ed327d80] Opening 'https://streams.spacetoon.com/live/stchannel/smil:livesmil.smil/media_w276730450_b346000_slAR_26627.ts' for reading
frame=13499 fps= 26 q=-1.0 size=N/A time=00:09:00.10 bitrate=N/A speed=1.04x    [https @ 0x5648ed279dc0] Opening 'https://streams.spacetoon.com/live/stchannel/smil:livesmil.smil/chunklist_w276730450_b1296000_slAR.m3u8' for reading
[hls @ 0x5648ecff9780] Skip ('#EXT-X-VERSION:3')
[hls @ 0x5648ecff9780] Skip ('#EXT-X-DISCONTINUITY-SEQUENCE:0')
[https @ 0x5648ee2ab400] Opening 'https://streams.spacetoon.com/live/stchannel/smil:livesmil.smil/media_w276730450_b1296000_slAR_26627.ts' for reading
[hls @ 0x5648eec3f680] Opening '/var/www/html/live/chs/playlist17.ts' for writing
[hls muxer @ 0x5648eec400c0] failed to delete old segment /var/www/html/live/chs/playlist11.ts: No such file or directory
[hls @ 0x5648eec3f680] Opening '/var/www/html/live/chs/playlist.m3u8.tmp' for writing
[https @ 0x5648ed279dc0] Opening 'https://streams.spacetoon.com/live/stchannel/smil:livesmil.smil/chunklist_w276730450_b346000_slAR.m3u8' for reading
[hls @ 0x5648ecff9780] Skip ('#EXT-X-VERSION:3')
[hls @ 0x5648ecff9780] Skip ('#EXT-X-DISCONTINUITY-SEQUENCE:0')
[https @ 0x5648ed327d80] Opening 'https://streams.spacetoon.com/live/stchannel/smil:livesmil.smil/media_w276730450_b346000_slAR_26628.ts' for reading
frame=13739 fps= 26 q=-1.0 size=N/A time=00:09:10.02 bitrate=N/A speed=1.04x    [https @ 0x5648ed279dc0] Opening 'https://streams.spacetoon.com/live/stchannel/smil:livesmil.smil/chunklist_w276730450_b1296000_slAR.m3u8' for reading
[hls @ 0x5648ecff9780] Skip ('#EXT-X-VERSION:3')
[hls @ 0x5648ecff9780] Skip ('#EXT-X-DISCONTINUITY-SEQUENCE:0')
[https @ 0x5648ee2ab400] Opening 'https://streams.spacetoon.com/live/stchannel/smil:livesmil.smil/media_w276730450_b1296000_slAR_26628.ts' for reading
[https @ 0x5648ed279dc0] Opening 'https://streams.spacetoon.com/live/stchannel/smil:livesmil.smil/chunklist_w276730450_b346000_slAR.m3u8' for reading
[hls @ 0x5648ecff9780] Skip ('#EXT-X-VERSION:3')
[hls @ 0x5648ecff9780] Skip ('#EXT-X-DISCONTINUITY-SEQUENCE:0')
[https @ 0x5648ed327d80] Opening 'https://streams.spacetoon.com/live/stchannel/smil:livesmil.smil/media_w276730450_b346000_slAR_26629.ts' for reading
frame=13979 fps= 26 q=-1.0 size=N/A time=00:09:19.55 bitrate=N/A speed=1.04x    [https @ 0x5648ed279dc0] Opening 'https://streams.spacetoon.com/live/stchannel/smil:livesmil.smil/chunklist_w276730450_b1296000_slAR.m3u8' for reading
[hls @ 0x5648ecff9780] Skip ('#EXT-X-VERSION:3')
[hls @ 0x5648ecff9780] Skip ('#EXT-X-DISCONTINUITY-SEQUENCE:0')
[https @ 0x5648ee2ab400] Opening 'https://streams.spacetoon.com/live/stchannel/smil:livesmil.smil/media_w276730450_b1296000_slAR_26629.ts' for reading
[https @ 0x5648ed279dc0] Opening 'https://streams.spacetoon.com/live/stchannel/smil:livesmil.smil/chunklist_w276730450_b346000_slAR.m3u8' for reading
[hls @ 0x5648ecff9780] Skip ('#EXT-X-VERSION:3')
[hls @ 0x5648ecff9780] Skip ('#EXT-X-DISCONTINUITY-SEQUENCE:0')
[https @ 0x5648ed327d80] Opening 'https://streams.spacetoon.com/live/stchannel/smil:livesmil.smil/media_w276730450_b346000_slAR_26630.ts' for reading
frame=14219 fps= 26 q=-1.0 size=N/A time=00:09:28.96 bitrate=N/A speed=1.04x    [https @ 0x5648ed279dc0] Opening 'https://streams.spacetoon.com/live/stchannel/smil:livesmil.smil/chunklist_w276730450_b1296000_slAR.m3u8' for reading
[hls @ 0x5648ecff9780] Skip ('#EXT-X-VERSION:3')
[hls @ 0x5648ecff9780] Skip ('#EXT-X-DISCONTINUITY-SEQUENCE:0')
[https @ 0x5648ee2ab400] Opening 'https://streams.spacetoon.com/live/stchannel/smil:livesmil.smil/media_w276730450_b1296000_slAR_26630.ts' for reading
[hls @ 0x5648eec3f680] Opening '/var/www/html/live/chs/playlist18.ts' for writing
[hls muxer @ 0x5648eec400c0] failed to delete old segment /var/www/html/live/chs/playlist12.ts: No such file or directory
[hls @ 0x5648eec3f680] Opening '/var/www/html/live/chs/playlist.m3u8.tmp' for writing
[https @ 0x5648ed279dc0] Opening 'https://streams.spacetoon.com/live/stchannel/smil:livesmil.smil/chunklist_w276730450_b346000_slAR.m3u8' for reading
[hls @ 0x5648ecff9780] Skip ('#EXT-X-VERSION:3')
[hls @ 0x5648ecff9780] Skip ('#EXT-X-DISCONTINUITY-SEQUENCE:0')
[https @ 0x5648ed327d80] Opening 'https://streams.spacetoon.com/live/stchannel/smil:livesmil.smil/media_w276730450_b346000_slAR_26631.ts' for reading
frame=14459 fps= 26 q=-1.0 size=N/A time=00:09:38.88 bitrate=N/A speed=1.04x    [https @ 0x5648ed279dc0] Opening 'https://streams.spacetoon.com/live/stchannel/smil:livesmil.smil/chunklist_w276730450_b1296000_slAR.m3u8' for reading
[hls @ 0x5648ecff9780] Skip ('#EXT-X-VERSION:3')
[hls @ 0x5648ecff9780] Skip ('#EXT-X-DISCONTINUITY-SEQUENCE:0')
[https @ 0x5648ee2ab400] Opening 'https://streams.spacetoon.com/live/stchannel/smil:livesmil.smil/media_w276730450_b1296000_slAR_26631.ts' for reading
[https @ 0x5648ed279dc0] Opening 'https://streams.spacetoon.com/live/stchannel/smil:livesmil.smil/chunklist_w276730450_b346000_slAR.m3u8' for reading
[hls @ 0x5648ecff9780] Skip ('#EXT-X-VERSION:3')
[hls @ 0x5648ecff9780] Skip ('#EXT-X-DISCONTINUITY-SEQUENCE:0')
[https @ 0x5648ed327d80] Opening 'https://streams.spacetoon.com/live/stchannel/smil:livesmil.smil/media_w276730450_b346000_slAR_26632.ts' for reading
frame=14759 fps= 26 q=-1.0 size=N/A time=00:09:50.72 bitrate=N/A speed=1.04x    [https @ 0x5648ed279dc0] Opening 'https://streams.spacetoon.com/live/stchannel/smil:livesmil.smil/chunklist_w276730450_b1296000_slAR.m3u8' for reading
[hls @ 0x5648ecff9780] Skip ('#EXT-X-VERSION:3')
[hls @ 0x5648ecff9780] Skip ('#EXT-X-DISCONTINUITY-SEQUENCE:0')
[https @ 0x5648ee2ab400] Opening 'https://streams.spacetoon.com/live/stchannel/smil:livesmil.smil/media_w276730450_b1296000_slAR_26632.ts' for reading
[https @ 0x5648ed279dc0] Opening 'https://streams.spacetoon.com/live/stchannel/smil:livesmil.smil/chunklist_w276730450_b346000_slAR.m3u8' for reading
[hls @ 0x5648ecff9780] Skip ('#EXT-X-VERSION:3')
[hls @ 0x5648ecff9780] Skip ('#EXT-X-DISCONTINUITY-SEQUENCE:0')
[https @ 0x5648ed327d80] Opening 'https://streams.spacetoon.com/live/stchannel/smil:livesmil.smil/media_w276730450_b346000_slAR_26633.ts' for reading
frame=14999 fps= 26 q=-1.0 size=N/A time=00:10:00.64 bitrate=N/A speed=1.04x    [https @ 0x5648ed279dc0] Opening 'https://streams.spacetoon.com/live/stchannel/smil:livesmil.smil/chunklist_w276730450_b1296000_slAR.m3u8' for reading
[hls @ 0x5648ecff9780] Skip ('#EXT-X-VERSION:3')
[hls @ 0x5648ecff9780] Skip ('#EXT-X-DISCONTINUITY-SEQUENCE:0')
[https @ 0x5648ee2ab400] Opening 'https://streams.spacetoon.com/live/stchannel/smil:livesmil.smil/media_w276730450_b1296000_slAR_26633.ts' for reading
[hls @ 0x5648eec3f680] Opening '/var/www/html/live/chs/playlist19.ts' for writing
[hls muxer @ 0x5648eec400c0] failed to delete old segment /var/www/html/live/chs/playlist13.ts: No such file or directory
[hls @ 0x5648eec3f680] Opening '/var/www/html/live/chs/playlist.m3u8.tmp' for writing
[https @ 0x5648ed279dc0] Opening 'https://streams.spacetoon.com/live/stchannel/smil:livesmil.smil/chunklist_w276730450_b346000_slAR.m3u8' for reading
[hls @ 0x5648ecff9780] Skip ('#EXT-X-VERSION:3')
[hls @ 0x5648ecff9780] Skip ('#EXT-X-DISCONTINUITY-SEQUENCE:0')
[https @ 0x5648ed327d80] Opening 'https://streams.spacetoon.com/live/stchannel/smil:livesmil.smil/media_w276730450_b346000_slAR_26634.ts' for reading
frame=15239 fps= 26 q=-1.0 size=N/A time=00:10:09.98 bitrate=N/A speed=1.04x    [https @ 0x5648ed279dc0] Opening 'https://streams.spacetoon.com/live/stchannel/smil:livesmil.smil/chunklist_w276730450_b1296000_slAR.m3u8' for reading
[hls @ 0x5648ecff9780] Skip ('#EXT-X-VERSION:3')
[hls @ 0x5648ecff9780] Skip ('#EXT-X-DISCONTINUITY-SEQUENCE:0')
[https @ 0x5648ee2ab400] Opening 'https://streams.spacetoon.com/live/stchannel/smil:livesmil.smil/media_w276730450_b1296000_slAR_26634.ts' for reading
[https @ 0x5648ed279dc0] Opening 'https://streams.spacetoon.com/live/stchannel/smil:livesmil.smil/chunklist_w276730450_b346000_slAR.m3u8' for reading
[hls @ 0x5648ecff9780] Skip ('#EXT-X-VERSION:3')
[hls @ 0x5648ecff9780] Skip ('#EXT-X-DISCONTINUITY-SEQUENCE:0')
[https @ 0x5648ed327d80] Opening 'https://streams.spacetoon.com/live/stchannel/smil:livesmil.smil/media_w276730450_b346000_slAR_26635.ts' for reading
frame=15479 fps= 26 q=-1.0 size=N/A time=00:10:19.52 bitrate=N/A speed=1.04x    [https @ 0x5648ed279dc0] Opening 'https://streams.spacetoon.com/live/stchannel/smil:livesmil.smil/chunklist_w276730450_b1296000_slAR.m3u8' for reading
[hls @ 0x5648ecff9780] Skip ('#EXT-X-VERSION:3')
[hls @ 0x5648ecff9780] Skip ('#EXT-X-DISCONTINUITY-SEQUENCE:0')
[https @ 0x5648ee2ab400] Opening 'https://streams.spacetoon.com/live/stchannel/smil:livesmil.smil/media_w276730450_b1296000_slAR_26635.ts' for reading
[https @ 0x5648ed279dc0] Opening 'https://streams.spacetoon.com/live/stchannel/smil:livesmil.smil/chunklist_w276730450_b346000_slAR.m3u8' for reading
[hls @ 0x5648ecff9780] Skip ('#EXT-X-VERSION:3')
[hls @ 0x5648ecff9780] Skip ('#EXT-X-DISCONTINUITY-SEQUENCE:0')
[https @ 0x5648ed327d80] Opening 'https://streams.spacetoon.com/live/stchannel/smil:livesmil.smil/media_w276730450_b346000_slAR_26636.ts' for reading
frame=15719 fps= 26 q=-1.0 size=N/A time=00:10:29.31 bitrate=N/A speed=1.04x    [https @ 0x5648ed279dc0] Opening 'https://streams.spacetoon.com/live/stchannel/smil:livesmil.smil/chunklist_w276730450_b1296000_slAR.m3u8' for reading
[hls @ 0x5648ecff9780] Skip ('#EXT-X-VERSION:3')
[hls @ 0x5648ecff9780] Skip ('#EXT-X-DISCONTINUITY-SEQUENCE:0')
[https @ 0x5648ee2ab400] Opening 'https://streams.spacetoon.com/live/stchannel/smil:livesmil.smil/media_w276730450_b1296000_slAR_26636.ts' for reading
[hls @ 0x5648eec3f680] Opening '/var/www/html/live/chs/playlist20.ts' for writing
[hls muxer @ 0x5648eec400c0] failed to delete old segment /var/www/html/live/chs/playlist14.ts: No such file or directory
[hls @ 0x5648eec3f680] Opening '/var/www/html/live/chs/playlist.m3u8.tmp' for writing
[https @ 0x5648ed279dc0] Opening 'https://streams.spacetoon.com/live/stchannel/smil:livesmil.smil/chunklist_w276730450_b346000_slAR.m3u8' for reading
[hls @ 0x5648ecff9780] Skip ('#EXT-X-VERSION:3')
[hls @ 0x5648ecff9780] Skip ('#EXT-X-DISCONTINUITY-SEQUENCE:0')
[https @ 0x5648ed327d80] Opening 'https://streams.spacetoon.com/live/stchannel/smil:livesmil.smil/media_w276730450_b346000_slAR_26637.ts' for reading
frame=15959 fps= 26 q=-1.0 size=N/A time=00:10:38.85 bitrate=N/A speed=1.03x    [https @ 0x5648ed279dc0] Opening 'https://streams.spacetoon.com/live/stchannel/smil:livesmil.smil/chunklist_w276730450_b1296000_slAR.m3u8' for reading
[hls @ 0x5648ecff9780] Skip ('#EXT-X-VERSION:3')
[hls @ 0x5648ecff9780] Skip ('#EXT-X-DISCONTINUITY-SEQUENCE:0')
[https @ 0x5648ee2ab400] Opening 'https://streams.spacetoon.com/live/stchannel/smil:livesmil.smil/media_w276730450_b1296000_slAR_26637.ts' for reading
[https @ 0x5648ed279dc0] Opening 'https://streams.spacetoon.com/live/stchannel/smil:livesmil.smil/chunklist_w276730450_b346000_slAR.m3u8' for reading
[hls @ 0x5648ecff9780] Skip ('#EXT-X-VERSION:3')
[hls @ 0x5648ecff9780] Skip ('#EXT-X-DISCONTINUITY-SEQUENCE:0')
[https @ 0x5648ed327d80] Opening 'https://streams.spacetoon.com/live/stchannel/smil:livesmil.smil/media_w276730450_b346000_slAR_26638.ts' for reading
frame=16259 fps= 26 q=-1.0 size=N/A time=00:10:50.56 bitrate=N/A speed=1.03x    [https @ 0x5648ed279dc0] Opening 'https://streams.spacetoon.com/live/stchannel/smil:livesmil.smil/chunklist_w276730450_b1296000_slAR.m3u8' for reading
[hls @ 0x5648ecff9780] Skip ('#EXT-X-VERSION:3')
[hls @ 0x5648ecff9780] Skip ('#EXT-X-DISCONTINUITY-SEQUENCE:0')
[https @ 0x5648ee2ab400] Opening 'https://streams.spacetoon.com/live/stchannel/smil:livesmil.smil/media_w276730450_b1296000_slAR_26638.ts' for reading
[https @ 0x5648ed279dc0] Opening 'https://streams.spacetoon.com/live/stchannel/smil:livesmil.smil/chunklist_w276730450_b346000_slAR.m3u8' for reading
[hls @ 0x5648ecff9780] Skip ('#EXT-X-VERSION:3')
[hls @ 0x5648ecff9780] Skip ('#EXT-X-DISCONTINUITY-SEQUENCE:0')
[https @ 0x5648ed327d80] Opening 'https://streams.spacetoon.com/live/stchannel/smil:livesmil.smil/media_w276730450_b346000_slAR_26639.ts' for reading
frame=16499 fps= 26 q=-1.0 size=N/A time=00:11:00.48 bitrate=N/A speed=1.03x    [https @ 0x5648ed279dc0] Opening 'https://streams.spacetoon.com/live/stchannel/smil:livesmil.smil/chunklist_w276730450_b1296000_slAR.m3u8' for reading
[hls @ 0x5648ecff9780] Skip ('#EXT-X-VERSION:3')
[hls @ 0x5648ecff9780] Skip ('#EXT-X-DISCONTINUITY-SEQUENCE:0')
[https @ 0x5648ee2ab400] Opening 'https://streams.spacetoon.com/live/stchannel/smil:livesmil.smil/media_w276730450_b1296000_slAR_26639.ts' for reading
[hls @ 0x5648eec3f680] Opening '/var/www/html/live/chs/playlist21.ts' for writing
[hls muxer @ 0x5648eec400c0] failed to delete old segment /var/www/html/live/chs/playlist15.ts: No such file or directory
[hls @ 0x5648eec3f680] Opening '/var/www/html/live/chs/playlist.m3u8.tmp' for writing
[https @ 0x5648ed279dc0] Opening 'https://streams.spacetoon.com/live/stchannel/smil:livesmil.smil/chunklist_w276730450_b346000_slAR.m3u8' for reading
[hls @ 0x5648ecff9780] Skip ('#EXT-X-VERSION:3')
[hls @ 0x5648ecff9780] Skip ('#EXT-X-DISCONTINUITY-SEQUENCE:0')
[https @ 0x5648ed327d80] Opening 'https://streams.spacetoon.com/live/stchannel/smil:livesmil.smil/media_w276730450_b346000_slAR_26640.ts' for reading
frame=16739 fps= 26 q=-1.0 size=N/A time=00:11:09.76 bitrate=N/A speed=1.03x    [https @ 0x5648ed279dc0] Opening 'https://streams.spacetoon.com/live/stchannel/smil:livesmil.smil/chunklist_w276730450_b1296000_slAR.m3u8' for reading
[hls @ 0x5648ecff9780] Skip ('#EXT-X-VERSION:3')
[hls @ 0x5648ecff9780] Skip ('#EXT-X-DISCONTINUITY-SEQUENCE:0')
[https @ 0x5648ee2ab400] Opening 'https://streams.spacetoon.com/live/stchannel/smil:livesmil.smil/media_w276730450_b1296000_slAR_26640.ts' for reading
[https @ 0x5648ed279dc0] Opening 'https://streams.spacetoon.com/live/stchannel/smil:livesmil.smil/chunklist_w276730450_b346000_slAR.m3u8' for reading
[hls @ 0x5648ecff9780] Skip ('#EXT-X-VERSION:3')
[hls @ 0x5648ecff9780] Skip ('#EXT-X-DISCONTINUITY-SEQUENCE:0')
[https @ 0x5648ed327d80] Opening 'https://streams.spacetoon.com/live/stchannel/smil:livesmil.smil/media_w276730450_b346000_slAR_26641.ts' for reading
frame=16979 fps= 26 q=-1.0 size=N/A time=00:11:19.62 bitrate=N/A speed=1.03x    [https @ 0x5648ed279dc0] Opening 'https://streams.spacetoon.com/live/stchannel/smil:livesmil.smil/chunklist_w276730450_b1296000_slAR.m3u8' for reading
[hls @ 0x5648ecff9780] Skip ('#EXT-X-VERSION:3')
[hls @ 0x5648ecff9780] Skip ('#EXT-X-DISCONTINUITY-SEQUENCE:0')
[https @ 0x5648ee2ab400] Opening 'https://streams.spacetoon.com/live/stchannel/smil:livesmil.smil/media_w276730450_b1296000_slAR_26641.ts' for reading
[https @ 0x5648ed279dc0] Opening 'https://streams.spacetoon.com/live/stchannel/smil:livesmil.smil/chunklist_w276730450_b346000_slAR.m3u8' for reading
[hls @ 0x5648ecff9780] Skip ('#EXT-X-VERSION:3')
[hls @ 0x5648ecff9780] Skip ('#EXT-X-DISCONTINUITY-SEQUENCE:0')
[https @ 0x5648ed327d80] Opening 'https://streams.spacetoon.com/live/stchannel/smil:livesmil.smil/media_w276730450_b346000_slAR_26642.ts' for reading
frame=17219 fps= 26 q=-1.0 size=N/A time=00:11:29.22 bitrate=N/A speed=1.03x    [https @ 0x5648ed279dc0] Opening 'https://streams.spacetoon.com/live/stchannel/smil:livesmil.smil/chunklist_w276730450_b1296000_slAR.m3u8' for reading
[hls @ 0x5648ecff9780] Skip ('#EXT-X-VERSION:3')
[hls @ 0x5648ecff9780] Skip ('#EXT-X-DISCONTINUITY-SEQUENCE:0')
[https @ 0x5648ee2ab400] Opening 'https://streams.spacetoon.com/live/stchannel/smil:livesmil.smil/media_w276730450_b1296000_slAR_26642.ts' for reading
[hls @ 0x5648eec3f680] Opening '/var/www/html/live/chs/playlist22.ts' for writing
[hls muxer @ 0x5648eec400c0] failed to delete old segment /var/www/html/live/chs/playlist16.ts: No such file or directory
[hls @ 0x5648eec3f680] Opening '/var/www/html/live/chs/playlist.m3u8.tmp' for writing
[https @ 0x5648ed279dc0] Opening 'https://streams.spacetoon.com/live/stchannel/smil:livesmil.smil/chunklist_w276730450_b346000_slAR.m3u8' for reading
[hls @ 0x5648ecff9780] Skip ('#EXT-X-VERSION:3')
[hls @ 0x5648ecff9780] Skip ('#EXT-X-DISCONTINUITY-SEQUENCE:0')
[https @ 0x5648ed327d80] Opening 'https://streams.spacetoon.com/live/stchannel/smil:livesmil.smil/media_w276730450_b346000_slAR_26643.ts' for reading
frame=17459 fps= 26 q=-1.0 size=N/A time=00:11:38.69 bitrate=N/A speed=1.03x    [https @ 0x5648ed279dc0] Opening 'https://streams.spacetoon.com/live/stchannel/smil:livesmil.smil/chunklist_w276730450_b1296000_slAR.m3u8' for reading
[hls @ 0x5648ecff9780] Skip ('#EXT-X-VERSION:3')
[hls @ 0x5648ecff9780] Skip ('#EXT-X-DISCONTINUITY-SEQUENCE:0')
[https @ 0x5648ee2ab400] Opening 'https://streams.spacetoon.com/live/stchannel/smil:livesmil.smil/media_w276730450_b1296000_slAR_26643.ts' for reading
[https @ 0x5648ed279dc0] Opening 'https://streams.spacetoon.com/live/stchannel/smil:livesmil.smil/chunklist_w276730450_b346000_slAR.m3u8' for reading
[hls @ 0x5648ecff9780] Skip ('#EXT-X-VERSION:3')
[hls @ 0x5648ecff9780] Skip ('#EXT-X-DISCONTINUITY-SEQUENCE:0')
[https @ 0x5648ed327d80] Opening 'https://streams.spacetoon.com/live/stchannel/smil:livesmil.smil/media_w276730450_b346000_slAR_26644.ts' for reading
frame=17759 fps= 26 q=-1.0 size=N/A time=00:11:51.04 bitrate=N/A speed=1.03x    [https @ 0x5648ed279dc0] Opening 'https://streams.spacetoon.com/live/stchannel/smil:livesmil.smil/chunklist_w276730450_b1296000_slAR.m3u8' for reading
[hls @ 0x5648ecff9780] Skip ('#EXT-X-VERSION:3')
[hls @ 0x5648ecff9780] Skip ('#EXT-X-DISCONTINUITY-SEQUENCE:0')
[https @ 0x5648ee2ab400] Opening 'https://streams.spacetoon.com/live/stchannel/smil:livesmil.smil/media_w276730450_b1296000_slAR_26644.ts' for reading
[https @ 0x5648ed279dc0] Opening 'https://streams.spacetoon.com/live/stchannel/smil:livesmil.smil/chunklist_w276730450_b346000_slAR.m3u8' for reading
[hls @ 0x5648ecff9780] Skip ('#EXT-X-VERSION:3')
[hls @ 0x5648ecff9780] Skip ('#EXT-X-DISCONTINUITY-SEQUENCE:0')
[https @ 0x5648ed327d80] Opening 'https://streams.spacetoon.com/live/stchannel/smil:livesmil.smil/media_w276730450_b346000_slAR_26645.ts' for reading
frame=17999 fps= 26 q=-1.0 size=N/A time=00:12:00.32 bitrate=N/A speed=1.03x    [https @ 0x5648ed279dc0] Opening 'https://streams.spacetoon.com/live/stchannel/smil:livesmil.smil/chunklist_w276730450_b1296000_slAR.m3u8' for reading
[hls @ 0x5648ecff9780] Skip ('#EXT-X-VERSION:3')
[hls @ 0x5648ecff9780] Skip ('#EXT-X-DISCONTINUITY-SEQUENCE:0')
[https @ 0x5648ee2ab400] Opening 'https://streams.spacetoon.com/live/stchannel/smil:livesmil.smil/media_w276730450_b1296000_slAR_26645.ts' for reading
[hls @ 0x5648eec3f680] Opening '/var/www/html/live/chs/playlist23.ts' for writing
[hls muxer @ 0x5648eec400c0] failed to delete old segment /var/www/html/live/chs/playlist17.ts: No such file or directory
[hls @ 0x5648eec3f680] Opening '/var/www/html/live/chs/playlist.m3u8.tmp' for writing
[https @ 0x5648ed279dc0] Opening 'https://streams.spacetoon.com/live/stchannel/smil:livesmil.smil/chunklist_w276730450_b346000_slAR.m3u8' for reading
[hls @ 0x5648ecff9780] Skip ('#EXT-X-VERSION:3')
[hls @ 0x5648ecff9780] Skip ('#EXT-X-DISCONTINUITY-SEQUENCE:0')
[https @ 0x5648ed327d80] Opening 'https://streams.spacetoon.com/live/stchannel/smil:livesmil.smil/media_w276730450_b346000_slAR_26646.ts' for reading
frame=18239 fps= 26 q=-1.0 size=N/A time=00:12:10.05 bitrate=N/A speed=1.03x    [https @ 0x5648ed279dc0] Opening 'https://streams.spacetoon.com/live/stchannel/smil:livesmil.smil/chunklist_w276730450_b1296000_slAR.m3u8' for reading
[hls @ 0x5648ecff9780] Skip ('#EXT-X-VERSION:3')
[hls @ 0x5648ecff9780] Skip ('#EXT-X-DISCONTINUITY-SEQUENCE:0')
[https @ 0x5648ee2ab400] Opening 'https://streams.spacetoon.com/live/stchannel/smil:livesmil.smil/media_w276730450_b1296000_slAR_26646.ts' for reading
[https @ 0x5648ed279dc0] Opening 'https://streams.spacetoon.com/live/stchannel/smil:livesmil.smil/chunklist_w276730450_b346000_slAR.m3u8' for reading
[hls @ 0x5648ecff9780] Skip ('#EXT-X-VERSION:3')
[hls @ 0x5648ecff9780] Skip ('#EXT-X-DISCONTINUITY-SEQUENCE:0')
[https @ 0x5648ed327d80] Opening 'https://streams.spacetoon.com/live/stchannel/smil:livesmil.smil/media_w276730450_b346000_slAR_26647.ts' for reading
frame=18479 fps= 26 q=-1.0 size=N/A time=00:12:19.52 bitrate=N/A speed=1.03x    [https @ 0x5648ed279dc0] Opening 'https://streams.spacetoon.com/live/stchannel/smil:livesmil.smil/chunklist_w276730450_b1296000_slAR.m3u8' for reading
[hls @ 0x5648ecff9780] Skip ('#EXT-X-VERSION:3')
[hls @ 0x5648ecff9780] Skip ('#EXT-X-DISCONTINUITY-SEQUENCE:0')
[https @ 0x5648ee2ab400] Opening 'https://streams.spacetoon.com/live/stchannel/smil:livesmil.smil/media_w276730450_b1296000_slAR_26647.ts' for reading
[https @ 0x5648ee57e800] Opening 'https://streams.spacetoon.com/live/stchannel/smil:livesmil.smil/media_w276730450_b1296000_slAR_26648.ts' for reading
[https @ 0x5648ed279dc0] Opening 'https://streams.spacetoon.com/live/stchannel/smil:livesmil.smil/chunklist_w276730450_b346000_slAR.m3u8' for reading
[hls @ 0x5648ecff9780] Skip ('#EXT-X-VERSION:3')
[hls @ 0x5648ecff9780] Skip ('#EXT-X-DISCONTINUITY-SEQUENCE:0')
[https @ 0x5648ed327d80] Opening 'https://streams.spacetoon.com/live/stchannel/smil:livesmil.smil/media_w276730450_b346000_slAR_26648.ts' for reading
frame=18719 fps= 26 q=-1.0 size=N/A time=00:12:29.18 bitrate=N/A speed=1.03x    [hls @ 0x5648eec3f680] Opening '/var/www/html/live/chs/playlist24.ts' for writing
[hls muxer @ 0x5648eec400c0] failed to delete old segment /var/www/html/live/chs/playlist18.ts: No such file or directory
[hls @ 0x5648eec3f680] Opening '/var/www/html/live/chs/playlist.m3u8.tmp' for writing
[https @ 0x5648ed279dc0] Opening 'https://streams.spacetoon.com/live/stchannel/smil:livesmil.smil/chunklist_w276730450_b346000_slAR.m3u8' for reading
[hls @ 0x5648ecff9780] Skip ('#EXT-X-VERSION:3')
[hls @ 0x5648ecff9780] Skip ('#EXT-X-DISCONTINUITY-SEQUENCE:0')
[https @ 0x5648ed327d80] Opening 'https://streams.spacetoon.com/live/stchannel/smil:livesmil.smil/media_w276730450_b346000_slAR_26649.ts' for reading
frame=18959 fps= 26 q=-1.0 size=N/A time=00:12:38.91 bitrate=N/A speed=1.03x    [https @ 0x5648ed279dc0] Opening 'https://streams.spacetoon.com/live/stchannel/smil:livesmil.smil/chunklist_w276730450_b1296000_slAR.m3u8' for reading
[hls @ 0x5648ecff9780] Skip ('#EXT-X-VERSION:3')
[hls @ 0x5648ecff9780] Skip ('#EXT-X-DISCONTINUITY-SEQUENCE:0')
[https @ 0x5648ee57e800] Opening 'https://streams.spacetoon.com/live/stchannel/smil:livesmil.smil/media_w276730450_b1296000_slAR_26649.ts' for reading
[https @ 0x5648ed279dc0] Opening 'https://streams.spacetoon.com/live/stchannel/smil:livesmil.smil/chunklist_w276730450_b346000_slAR.m3u8' for reading
[hls @ 0x5648ecff9780] Skip ('#EXT-X-VERSION:3')
[hls @ 0x5648ecff9780] Skip ('#EXT-X-DISCONTINUITY-SEQUENCE:0')
[https @ 0x5648ed327d80] Opening 'https://streams.spacetoon.com/live/stchannel/smil:livesmil.smil/media_w276730450_b346000_slAR_26650.ts' for reading
[https @ 0x5648ed351100] Opening 'https://streams.spacetoon.com/live/stchannel/smil:livesmil.smil/media_w276730450_b346000_slAR_26651.ts' for reading
[hls @ 0x5648ecff9780] Opening 'https://streams.spacetoon.com/live/stchannel/smil:livesmil.smil/media_w276730450_b346000_slAR_26651.ts' for reading
frame=19259 fps= 26 q=-1.0 size=N/A time=00:12:50.69 bitrate=N/A speed=1.03x    [https @ 0x5648ed279dc0] Opening 'https://streams.spacetoon.com/live/stchannel/smil:livesmil.smil/chunklist_w276730450_b1296000_slAR.m3u8' for reading
[hls @ 0x5648ecff9780] Skip ('#EXT-X-VERSION:3')
[hls @ 0x5648ecff9780] Skip ('#EXT-X-DISCONTINUITY-SEQUENCE:0')
[https @ 0x5648ee57e800] Opening 'https://streams.spacetoon.com/live/stchannel/smil:livesmil.smil/media_w276730450_b1296000_slAR_26650.ts' for reading
[https @ 0x5648ee2ab400] Opening 'https://streams.spacetoon.com/live/stchannel/smil:livesmil.smil/media_w276730450_b1296000_slAR_26651.ts' for reading
[hls @ 0x5648eec3f680] Opening '/var/www/html/live/chs/playlist25.ts' for writing
[hls muxer @ 0x5648eec400c0] failed to delete old segment /var/www/html/live/chs/playlist19.ts: No such file or directory
[hls @ 0x5648eec3f680] Opening '/var/www/html/live/chs/playlist.m3u8.tmp' for writing
[https @ 0x5648ed279dc0] Opening 'https://streams.spacetoon.com/live/stchannel/smil:livesmil.smil/chunklist_w276730450_b346000_slAR.m3u8' for reading
[hls @ 0x5648ecff9780] Skip ('#EXT-X-VERSION:3')
[hls @ 0x5648ecff9780] Skip ('#EXT-X-DISCONTINUITY-SEQUENCE:0')
[https @ 0x5648ee8c3400] Opening 'https://streams.spacetoon.com/live/stchannel/smil:livesmil.smil/media_w276730450_b346000_slAR_26652.ts' for reading
frame=19739 fps= 26 q=-1.0 size=N/A time=00:13:10.02 bitrate=N/A speed=1.04x    [https @ 0x5648ed279dc0] Opening 'https://streams.spacetoon.com/live/stchannel/smil:livesmil.smil/chunklist_w276730450_b1296000_slAR.m3u8' for reading
[hls @ 0x5648ecff9780] Skip ('#EXT-X-VERSION:3')
[hls @ 0x5648ecff9780] Skip ('#EXT-X-DISCONTINUITY-SEQUENCE:0')
[https @ 0x5648ee2ab400] Opening 'https://streams.spacetoon.com/live/stchannel/smil:livesmil.smil/media_w276730450_b1296000_slAR_26652.ts' for reading
[https @ 0x5648ed279dc0] Opening 'https://streams.spacetoon.com/live/stchannel/smil:livesmil.smil/chunklist_w276730450_b346000_slAR.m3u8' for reading
[hls @ 0x5648ecff9780] Skip ('#EXT-X-VERSION:3')
[hls @ 0x5648ecff9780] Skip ('#EXT-X-DISCONTINUITY-SEQUENCE:0')
[https @ 0x5648ee8c3400] Opening 'https://streams.spacetoon.com/live/stchannel/smil:livesmil.smil/media_w276730450_b346000_slAR_26653.ts' for reading
frame=19979 fps= 26 q=-1.0 size=N/A time=00:13:19.17 bitrate=N/A speed=1.04x    [https @ 0x5648ed279dc0] Opening 'https://streams.spacetoon.com/live/stchannel/smil:livesmil.smil/chunklist_w276730450_b1296000_slAR.m3u8' for reading
[hls @ 0x5648ecff9780] Skip ('#EXT-X-VERSION:3')
[hls @ 0x5648ecff9780] Skip ('#EXT-X-DISCONTINUITY-SEQUENCE:0')
[https @ 0x5648ee2ab400] Opening 'https://streams.spacetoon.com/live/stchannel/smil:livesmil.smil/media_w276730450_b1296000_slAR_26653.ts' for reading
[https @ 0x5648ed279dc0] Opening 'https://streams.spacetoon.com/live/stchannel/smil:livesmil.smil/chunklist_w276730450_b346000_slAR.m3u8' for reading
[hls @ 0x5648ecff9780] Skip ('#EXT-X-VERSION:3')
[hls @ 0x5648ecff9780] Skip ('#EXT-X-DISCONTINUITY-SEQUENCE:0')
[https @ 0x5648ee8c3400] Opening 'https://streams.spacetoon.com/live/stchannel/smil:livesmil.smil/media_w276730450_b346000_slAR_26654.ts' for reading
frame=20219 fps= 26 q=-1.0 size=N/A time=00:13:29.22 bitrate=N/A speed=1.04x    [https @ 0x5648ed279dc0] Opening 'https://streams.spacetoon.com/live/stchannel/smil:livesmil.smil/chunklist_w276730450_b1296000_slAR.m3u8' for reading
[hls @ 0x5648ecff9780] Skip ('#EXT-X-VERSION:3')
[hls @ 0x5648ecff9780] Skip ('#EXT-X-DISCONTINUITY-SEQUENCE:0')
[https @ 0x5648ee2ab400] Opening 'https://streams.spacetoon.com/live/stchannel/smil:livesmil.smil/media_w276730450_b1296000_slAR_26654.ts' for reading
[hls @ 0x5648eec3f680] Opening '/var/www/html/live/chs/playlist26.ts' for writing
[hls muxer @ 0x5648eec400c0] failed to delete old segment /var/www/html/live/chs/playlist20.ts: No such file or directory
[hls @ 0x5648eec3f680] Opening '/var/www/html/live/chs/playlist.m3u8.tmp' for writing
[https @ 0x5648ed279dc0] Opening 'https://streams.spacetoon.com/live/stchannel/smil:livesmil.smil/chunklist_w276730450_b346000_slAR.m3u8' for reading
[hls @ 0x5648ecff9780] Skip ('#EXT-X-VERSION:3')
[hls @ 0x5648ecff9780] Skip ('#EXT-X-DISCONTINUITY-SEQUENCE:0')
[https @ 0x5648ed279dc0] Opening 'https://streams.spacetoon.com/live/stchannel/smil:livesmil.smil/chunklist_w276730450_b346000_slAR.m3u8' for reading
[hls @ 0x5648ecff9780] Skip ('#EXT-X-VERSION:3')
[hls @ 0x5648ecff9780] Skip ('#EXT-X-DISCONTINUITY-SEQUENCE:0')
[https @ 0x5648ee8c3400] Opening 'https://streams.spacetoon.com/live/stchannel/smil:livesmil.smil/media_w276730450_b346000_slAR_26655.ts' for reading
frame=20459 fps= 26 q=-1.0 size=N/A time=00:13:38.69 bitrate=N/A speed=1.03x    [https @ 0x5648ed279dc0] Opening 'https://streams.spacetoon.com/live/stchannel/smil:livesmil.smil/chunklist_w276730450_b1296000_slAR.m3u8' for reading
[hls @ 0x5648ecff9780] Skip ('#EXT-X-VERSION:3')
[hls @ 0x5648ecff9780] Skip ('#EXT-X-DISCONTINUITY-SEQUENCE:0')
[https @ 0x5648ee2ab400] Opening 'https://streams.spacetoon.com/live/stchannel/smil:livesmil.smil/media_w276730450_b1296000_slAR_26655.ts' for reading
[https @ 0x5648ed279dc0] Opening 'https://streams.spacetoon.com/live/stchannel/smil:livesmil.smil/chunklist_w276730450_b346000_slAR.m3u8' for reading
[hls @ 0x5648ecff9780] Skip ('#EXT-X-VERSION:3')
[hls @ 0x5648ecff9780] Skip ('#EXT-X-DISCONTINUITY-SEQUENCE:0')
[https @ 0x5648ee8c3400] Opening 'https://streams.spacetoon.com/live/stchannel/smil:livesmil.smil/media_w276730450_b346000_slAR_26656.ts' for reading
frame=20759 fps= 26 q=-1.0 size=N/A time=00:13:50.85 bitrate=N/A speed=1.03x    [https @ 0x5648ed279dc0] Opening 'https://streams.spacetoon.com/live/stchannel/smil:livesmil.smil/chunklist_w276730450_b1296000_slAR.m3u8' for reading
[hls @ 0x5648ecff9780] Skip ('#EXT-X-VERSION:3')
[hls @ 0x5648ecff9780] Skip ('#EXT-X-DISCONTINUITY-SEQUENCE:0')
[https @ 0x5648ee2ab400] Opening 'https://streams.spacetoon.com/live/stchannel/smil:livesmil.smil/media_w276730450_b1296000_slAR_26656.ts' for reading
[https @ 0x5648ed279dc0] Opening 'https://streams.spacetoon.com/live/stchannel/smil:livesmil.smil/chunklist_w276730450_b346000_slAR.m3u8' for reading
[hls @ 0x5648ecff9780] Skip ('#EXT-X-VERSION:3')
[hls @ 0x5648ecff9780] Skip ('#EXT-X-DISCONTINUITY-SEQUENCE:0')
[https @ 0x5648ee8c3400] Opening 'https://streams.spacetoon.com/live/stchannel/smil:livesmil.smil/media_w276730450_b346000_slAR_26657.ts' for reading
frame=20999 fps= 26 q=-1.0 size=N/A time=00:14:00.51 bitrate=N/A speed=1.03x    [https @ 0x5648ed279dc0] Opening 'https://streams.spacetoon.com/live/stchannel/smil:livesmil.smil/chunklist_w276730450_b1296000_slAR.m3u8' for reading
[hls @ 0x5648ecff9780] Skip ('#EXT-X-VERSION:3')
[hls @ 0x5648ecff9780] Skip ('#EXT-X-DISCONTINUITY-SEQUENCE:0')
[https @ 0x5648ee2ab400] Opening 'https://streams.spacetoon.com/live/stchannel/smil:livesmil.smil/media_w276730450_b1296000_slAR_26657.ts' for reading
[hls @ 0x5648eec3f680] Opening '/var/www/html/live/chs/playlist27.ts' for writing
[hls muxer @ 0x5648eec400c0] failed to delete old segment /var/www/html/live/chs/playlist21.ts: No such file or directory
[hls @ 0x5648eec3f680] Opening '/var/www/html/live/chs/playlist.m3u8.tmp' for writing
[https @ 0x5648ed279dc0] Opening 'https://streams.spacetoon.com/live/stchannel/smil:livesmil.smil/chunklist_w276730450_b346000_slAR.m3u8' for reading
[hls @ 0x5648ecff9780] Skip ('#EXT-X-VERSION:3')
[hls @ 0x5648ecff9780] Skip ('#EXT-X-DISCONTINUITY-SEQUENCE:0')
[https @ 0x5648ee8c3400] Opening 'https://streams.spacetoon.com/live/stchannel/smil:livesmil.smil/media_w276730450_b346000_slAR_26658.ts' for reading
frame=21239 fps= 26 q=-1.0 size=N/A time=00:14:09.86 bitrate=N/A speed=1.03x    [https @ 0x5648ed279dc0] Opening 'https://streams.spacetoon.com/live/stchannel/smil:livesmil.smil/chunklist_w276730450_b1296000_slAR.m3u8' for reading
[hls @ 0x5648ecff9780] Skip ('#EXT-X-VERSION:3')
[hls @ 0x5648ecff9780] Skip ('#EXT-X-DISCONTINUITY-SEQUENCE:0')
[https @ 0x5648ee2ab400] Opening 'https://streams.spacetoon.com/live/stchannel/smil:livesmil.smil/media_w276730450_b1296000_slAR_26658.ts' for reading
[https @ 0x5648ed279dc0] Opening 'https://streams.spacetoon.com/live/stchannel/smil:livesmil.smil/chunklist_w276730450_b346000_slAR.m3u8' for reading
[hls @ 0x5648ecff9780] Skip ('#EXT-X-VERSION:3')
[hls @ 0x5648ecff9780] Skip ('#EXT-X-DISCONTINUITY-SEQUENCE:0')
[https @ 0x5648ee8c3400] Opening 'https://streams.spacetoon.com/live/stchannel/smil:livesmil.smil/media_w276730450_b346000_slAR_26659.ts' for reading
frame=21479 fps= 26 q=-1.0 size=N/A time=00:14:19.58 bitrate=N/A speed=1.03x    [https @ 0x5648ed279dc0] Opening 'https://streams.spacetoon.com/live/stchannel/smil:livesmil.smil/chunklist_w276730450_b1296000_slAR.m3u8' for reading
[hls @ 0x5648ecff9780] Skip ('#EXT-X-VERSION:3')
[hls @ 0x5648ecff9780] Skip ('#EXT-X-DISCONTINUITY-SEQUENCE:0')
[https @ 0x5648ee2ab400] Opening 'https://streams.spacetoon.com/live/stchannel/smil:livesmil.smil/media_w276730450_b1296000_slAR_26659.ts' for reading
[https @ 0x5648ed279dc0] Opening 'https://streams.spacetoon.com/live/stchannel/smil:livesmil.smil/chunklist_w276730450_b346000_slAR.m3u8' for reading
[hls @ 0x5648ecff9780] Skip ('#EXT-X-VERSION:3')
[hls @ 0x5648ecff9780] Skip ('#EXT-X-DISCONTINUITY-SEQUENCE:0')
[https @ 0x5648ee8c3400] Opening 'https://streams.spacetoon.com/live/stchannel/smil:livesmil.smil/media_w276730450_b346000_slAR_26660.ts' for reading
frame=21719 fps= 26 q=-1.0 size=N/A time=00:14:29.18 bitrate=N/A speed=1.03x    [https @ 0x5648ed279dc0] Opening 'https://streams.spacetoon.com/live/stchannel/smil:livesmil.smil/chunklist_w276730450_b1296000_slAR.m3u8' for reading
[hls @ 0x5648ecff9780] Skip ('#EXT-X-VERSION:3')
[hls @ 0x5648ecff9780] Skip ('#EXT-X-DISCONTINUITY-SEQUENCE:0')
[https @ 0x5648ee2ab400] Opening 'https://streams.spacetoon.com/live/stchannel/smil:livesmil.smil/media_w276730450_b1296000_slAR_26660.ts' for reading
[hls @ 0x5648eec3f680] Opening '/var/www/html/live/chs/playlist28.ts' for writing
[hls muxer @ 0x5648eec400c0] failed to delete old segment /var/www/html/live/chs/playlist22.ts: No such file or directory
[hls @ 0x5648eec3f680] Opening '/var/www/html/live/chs/playlist.m3u8.tmp' for writing
[https @ 0x5648ed279dc0] Opening 'https://streams.spacetoon.com/live/stchannel/smil:livesmil.smil/chunklist_w276730450_b346000_slAR.m3u8' for reading
[hls @ 0x5648ecff9780] Skip ('#EXT-X-VERSION:3')
[hls @ 0x5648ecff9780] Skip ('#EXT-X-DISCONTINUITY-SEQUENCE:0')
[https @ 0x5648ee8c3400] Opening 'https://streams.spacetoon.com/live/stchannel/smil:livesmil.smil/media_w276730450_b346000_slAR_26661.ts' for reading
frame=21959 fps= 26 q=-1.0 size=N/A time=00:14:38.78 bitrate=N/A speed=1.03x    [https @ 0x5648ed279dc0] Opening 'https://streams.spacetoon.com/live/stchannel/smil:livesmil.smil/chunklist_w276730450_b1296000_slAR.m3u8' for reading
[hls @ 0x5648ecff9780] Skip ('#EXT-X-VERSION:3')
[hls @ 0x5648ecff9780] Skip ('#EXT-X-DISCONTINUITY-SEQUENCE:0')
[https @ 0x5648ee2ab400] Opening 'https://streams.spacetoon.com/live/stchannel/smil:livesmil.smil/media_w276730450_b1296000_slAR_26661.ts' for reading
[https @ 0x5648ed279dc0] Opening 'https://streams.spacetoon.com/live/stchannel/smil:livesmil.smil/chunklist_w276730450_b346000_slAR.m3u8' for reading
[hls @ 0x5648ecff9780] Skip ('#EXT-X-VERSION:3')
[hls @ 0x5648ecff9780] Skip ('#EXT-X-DISCONTINUITY-SEQUENCE:0')
[https @ 0x5648ee8c3400] Opening 'https://streams.spacetoon.com/live/stchannel/smil:livesmil.smil/media_w276730450_b346000_slAR_26662.ts' for reading
frame=22259 fps= 26 q=-1.0 size=N/A time=00:14:51.01 bitrate=N/A speed=1.03x    [https @ 0x5648ed279dc0] Opening 'https://streams.spacetoon.com/live/stchannel/smil:livesmil.smil/chunklist_w276730450_b1296000_slAR.m3u8' for reading
[hls @ 0x5648ecff9780] Skip ('#EXT-X-VERSION:3')
[hls @ 0x5648ecff9780] Skip ('#EXT-X-DISCONTINUITY-SEQUENCE:0')
[https @ 0x5648ee2ab400] Opening 'https://streams.spacetoon.com/live/stchannel/smil:livesmil.smil/media_w276730450_b1296000_slAR_26662.ts' for reading
[https @ 0x5648ed279dc0] Opening 'https://streams.spacetoon.com/live/stchannel/smil:livesmil.smil/chunklist_w276730450_b346000_slAR.m3u8' for reading
[hls @ 0x5648ecff9780] Skip ('#EXT-X-VERSION:3')
[hls @ 0x5648ecff9780] Skip ('#EXT-X-DISCONTINUITY-SEQUENCE:0')
[https @ 0x5648ee8c3400] Opening 'https://streams.spacetoon.com/live/stchannel/smil:livesmil.smil/media_w276730450_b346000_slAR_26663.ts' for reading
frame=22499 fps= 26 q=-1.0 size=N/A time=00:15:00.29 bitrate=N/A speed=1.03x    [https @ 0x5648ed279dc0] Opening 'https://streams.spacetoon.com/live/stchannel/smil:livesmil.smil/chunklist_w276730450_b1296000_slAR.m3u8' for reading
[hls @ 0x5648ecff9780] Skip ('#EXT-X-VERSION:3')
[hls @ 0x5648ecff9780] Skip ('#EXT-X-DISCONTINUITY-SEQUENCE:0')
[https @ 0x5648ee2ab400] Opening 'https://streams.spacetoon.com/live/stchannel/smil:livesmil.smil/media_w276730450_b1296000_slAR_26663.ts' for reading
[hls @ 0x5648eec3f680] Opening '/var/www/html/live/chs/playlist29.ts' for writing
[hls muxer @ 0x5648eec400c0] failed to delete old segment /var/www/html/live/chs/playlist23.ts: No such file or directory
[hls @ 0x5648eec3f680] Opening '/var/www/html/live/chs/playlist.m3u8.tmp' for writing
[https @ 0x5648ed279dc0] Opening 'https://streams.spacetoon.com/live/stchannel/smil:livesmil.smil/chunklist_w276730450_b346000_slAR.m3u8' for reading
[hls @ 0x5648ecff9780] Skip ('#EXT-X-VERSION:3')
[hls @ 0x5648ecff9780] Skip ('#EXT-X-DISCONTINUITY-SEQUENCE:0')
[https @ 0x5648ee8c3400] Opening 'https://streams.spacetoon.com/live/stchannel/smil:livesmil.smil/media_w276730450_b346000_slAR_26664.ts' for reading
frame=22739 fps= 26 q=-1.0 size=N/A time=00:15:09.95 bitrate=N/A speed=1.03x    [https @ 0x5648ed279dc0] Opening 'https://streams.spacetoon.com/live/stchannel/smil:livesmil.smil/chunklist_w276730450_b1296000_slAR.m3u8' for reading
[hls @ 0x5648ecff9780] Skip ('#EXT-X-VERSION:3')
[hls @ 0x5648ecff9780] Skip ('#EXT-X-DISCONTINUITY-SEQUENCE:0')
[https @ 0x5648ee2ab400] Opening 'https://streams.spacetoon.com/live/stchannel/smil:livesmil.smil/media_w276730450_b1296000_slAR_26664.ts' for reading
